<?xml version="1.0" encoding="UTF-8" standalone="no"?>
<!-- Created with Inkscape (http://www.inkscape.org/) -->

<svg
   xmlns:dc="http://purl.org/dc/elements/1.1/"
   xmlns:cc="http://creativecommons.org/ns#"
   xmlns:rdf="http://www.w3.org/1999/02/22-rdf-syntax-ns#"
   xmlns:svg="http://www.w3.org/2000/svg"
   xmlns="http://www.w3.org/2000/svg"
   xmlns:sodipodi="http://sodipodi.sourceforge.net/DTD/sodipodi-0.dtd"
   xmlns:inkscape="http://www.inkscape.org/namespaces/inkscape"
   version="1.1"
   id="svg2"
   xml:space="preserve"
   width="644.88232"
   height="157.05838"
   viewBox="0 0 644.88232 157.05838"
   sodipodi:docname="GitHub.svg"
   inkscape:version="0.92.2 5c3e80d, 2017-08-06"><metadata
     id="metadata8"><rdf:RDF><cc:Work
         rdf:about=""><dc:format>image/svg+xml</dc:format><dc:type
           rdf:resource="http://purl.org/dc/dcmitype/StillImage" /><dc:title></dc:title></cc:Work></rdf:RDF></metadata><defs
     id="defs6" /><sodipodi:namedview
     pagecolor="#ffffff"
     bordercolor="#666666"
     borderopacity="1"
     objecttolerance="10"
     gridtolerance="10"
     guidetolerance="10"
     inkscape:pageopacity="0"
     inkscape:pageshadow="2"
     inkscape:window-width="1436"
     inkscape:window-height="856"
     id="namedview4"
     showgrid="false"
     inkscape:zoom="1.0012832"
     inkscape:cx="189.4762"
     inkscape:cy="-33.105634"
     inkscape:window-x="4"
     inkscape:window-y="0"
     inkscape:window-maximized="1"
     inkscape:current-layer="g12"
     fit-margin-top="0"
     fit-margin-left="0"
     fit-margin-right="0"
     fit-margin-bottom="0" /><g
     id="g10"
     inkscape:groupmode="layer"
     inkscape:label="ink_ext_XXXXXX"
     transform="matrix(1.3333333,0,0,-1.3333333,-44.930359,660.08613)"><g
       id="g12"
       transform="scale(0.1)"><path
         d="m 4569.7251,4950.6461 c -333.47,0 -603.88,-270.36 -603.88,-603.88 0,-266.81 173.03,-493.17 412.97,-573.02 30.18,-5.59 41.26,13.1 41.26,29.05 0,14.4 -0.56,61.97 -0.82,112.43 -168,-36.53 -203.45,71.25 -203.45,71.25 -27.47,69.8 -67.05,88.36 -67.05,88.36 -54.79,37.48 4.13,36.71 4.13,36.71 60.64,-4.25 92.57,-62.24 92.57,-62.24 53.86,-92.31 141.27,-65.62 175.73,-50.19 5.42,39.03 21.07,65.68 38.34,80.75 -134.13,15.27 -275.13,67.05 -275.13,298.44 0,65.93 23.59,119.8 62.22,162.09 -6.27,15.22 -26.94,76.63 5.85,159.81 0,0 50.71,16.23 166.11,-61.9 48.17,13.38 99.83,20.09 151.15,20.32 51.32,-0.23 103.02,-6.94 151.28,-20.32 115.26,78.13 165.9,61.9 165.9,61.9 32.87,-83.18 12.19,-144.59 5.92,-159.81 38.72,-42.29 62.15,-96.16 62.15,-162.09 0,-231.94 -141.27,-283.01 -275.74,-297.96 21.66,-18.74 40.96,-55.49 40.96,-111.83 0,-80.8 -0.7,-145.83 -0.7,-165.72 0,-16.07 10.87,-34.9 41.48,-28.97 239.81,79.94 412.62,306.22 412.62,572.94 0,333.52 -270.37,603.88 -603.87,603.88"
         style="fill:#1b1817;fill-opacity:1;fill-rule:evenodd;stroke:none"
         id="path18"
         inkscape:connector-curvature="0" /><path
         d="m 4194.5651,4068.6061 c -1.33,-3.01 -6.05,-3.9 -10.35,-1.84 -4.38,1.97 -6.84,6.06 -5.42,9.07 1.3,3.08 6.03,3.94 10.4,1.89 4.39,-1.98 6.89,-6.11 5.37,-9.12 v 0"
         style="fill:#1b1817;fill-opacity:1;fill-rule:nonzero;stroke:none"
         id="path20"
         inkscape:connector-curvature="0" /><path
         d="m 4219.0251,4041.3261 c -2.88,-2.67 -8.51,-1.43 -12.33,2.79 -3.95,4.21 -4.69,9.84 -1.77,12.55 2.97,2.66 8.43,1.41 12.39,-2.79 3.95,-4.26 4.72,-9.85 1.71,-12.55 v 0"
         style="fill:#1b1817;fill-opacity:1;fill-rule:nonzero;stroke:none"
         id="path22"
         inkscape:connector-curvature="0" /><path
         d="m 4242.8351,4006.5461 c -3.7,-2.57 -9.75,-0.16 -13.49,5.21 -3.7,5.37 -3.7,11.81 0.08,14.39 3.75,2.58 9.71,0.25 13.5,-5.07 3.69,-5.46 3.69,-11.9 -0.09,-14.53 v 0"
         style="fill:#1b1817;fill-opacity:1;fill-rule:nonzero;stroke:none"
         id="path24"
         inkscape:connector-curvature="0" /><path
         d="m 4275.4551,3972.9461 c -3.31,-3.65 -10.36,-2.67 -15.52,2.31 -5.28,4.87 -6.75,11.78 -3.43,15.43 3.35,3.66 10.44,2.63 15.64,-2.31 5.24,-4.86 6.84,-11.82 3.31,-15.43 v 0"
         style="fill:#1b1817;fill-opacity:1;fill-rule:nonzero;stroke:none"
         id="path26"
         inkscape:connector-curvature="0" /><path
         d="m 4320.4551,3953.4361 c -1.46,-4.73 -8.25,-6.88 -15.09,-4.87 -6.83,2.07 -11.3,7.61 -9.92,12.39 1.42,4.76 8.24,7 15.13,4.85 6.82,-2.06 11.3,-7.56 9.88,-12.37 v 0"
         style="fill:#1b1817;fill-opacity:1;fill-rule:nonzero;stroke:none"
         id="path28"
         inkscape:connector-curvature="0" /><path
         d="m 4369.8751,3949.8161 c 0.17,-4.98 -5.63,-9.11 -12.81,-9.2 -7.22,-0.16 -13.06,3.87 -13.14,8.77 0,5.03 5.67,9.12 12.89,9.24 7.18,0.14 13.06,-3.86 13.06,-8.81 v 0"
         style="fill:#1b1817;fill-opacity:1;fill-rule:nonzero;stroke:none"
         id="path30"
         inkscape:connector-curvature="0" /><path
         d="m 4415.8651,3957.6461 c 0.86,-4.86 -4.13,-9.85 -11.26,-11.18 -7.01,-1.28 -13.5,1.72 -14.39,6.54 -0.87,4.98 4.21,9.97 11.21,11.26 7.14,1.24 13.53,-1.68 14.44,-6.62 v 0"
         style="fill:#1b1817;fill-opacity:1;fill-rule:nonzero;stroke:none"
         id="path32"
         inkscape:connector-curvature="0" /><g
         transform="matrix(10,0,0,10,-1805.7374,93.997283)"
         inkscape:label="ink_ext_XXXXXX"
         id="g242"><g
           transform="scale(0.1)"
           id="g244"><path
             inkscape:connector-curvature="0"
             id="path262"
             style="fill:#161312;fill-opacity:1;fill-rule:nonzero;stroke:none"
             d="m 2836.4451,4315.2261 h -302.67 c -7.81,0 -14.14,-6.34 -14.14,-14.16 v -147.97 c 0,-7.81 6.33,-14.17 14.14,-14.17 h 118.07 v -183.85 c 0,0 -26.51,-9.04 -99.81,-9.04 -86.47,0 -207.27,31.6 -207.27,297.24 0,265.68 125.79,300.64 243.88,300.64 102.23,0 146.26,-17.99 174.29,-26.66 8.81,-2.7 16.95,6.06 16.95,13.88 l 33.76,142.98 c 0,3.65 -1.24,8.06 -5.4,11.05 -11.38,8.11 -80.81,46.96 -256.21,46.96 -202.05,0 -409.32,-85.96 -409.32,-499.22 0,-413.26 237.3,-474.84 437.27,-474.84 165.57,0 266.01,70.75 266.01,70.75 4.14,2.29 4.59,8.07 4.59,10.73 v 461.52 c 0,7.82 -6.33,14.16 -14.14,14.16" /><path
             inkscape:connector-curvature="0"
             id="path264"
             style="fill:#161312;fill-opacity:1;fill-rule:nonzero;stroke:none"
             d="m 4396.2851,4682.6161 c 0,7.87 -6.24,14.23 -14.06,14.23 h -170.42 c -7.78,0 -14.11,-6.36 -14.11,-14.23 0,-0.04 0.05,-329.35 0.05,-329.35 h -265.65 v 329.35 c 0,7.87 -6.26,14.23 -14.06,14.23 h -170.41 c -7.75,0 -14.08,-6.36 -14.08,-14.23 v -891.78 c 0,-7.87 6.33,-14.27 14.08,-14.27 h 170.41 c 7.8,0 14.06,6.4 14.06,14.27 v 381.44 h 265.65 c 0,0 -0.47,-381.41 -0.47,-381.44 0,-7.87 6.32,-14.27 14.12,-14.27 h 170.82 c 7.81,0 14.05,6.4 14.07,14.27 v 891.78" /><path
             inkscape:connector-curvature="0"
             id="path266"
             style="fill:#161312;fill-opacity:1;fill-rule:nonzero;stroke:none"
             d="m 3158.0351,4565.5961 c 0,61.36 -49.19,110.95 -109.89,110.95 -60.64,0 -109.88,-49.59 -109.88,-110.95 0,-61.31 49.24,-111.03 109.88,-111.03 60.7,0 109.89,49.72 109.89,111.03" /><path
             inkscape:connector-curvature="0"
             id="path268"
             style="fill:#161312;fill-opacity:1;fill-rule:nonzero;stroke:none"
             d="m 3145.8551,3978.9461 c 0,22.86 0,411.65 0,411.65 0,7.82 -6.31,14.21 -14.1,14.21 h -169.89 c -7.79,0 -14.76,-8.04 -14.76,-15.85 0,0 0,-495.35 0,-589.77 0,-17.33 10.8,-22.49 24.77,-22.49 0,0 72.52,0 153.06,0 16.8,0 20.92,8.25 20.92,22.77 0,31.61 0,155.45 0,179.48" /><path
             inkscape:connector-curvature="0"
             id="path270"
             style="fill:#161312;fill-opacity:1;fill-rule:nonzero;stroke:none"
             d="m 5043.9551,4403.4661 h -169.11 c -7.75,0 -14.07,-6.4 -14.07,-14.26 v -437.27 c 0,0 -42.97,-31.43 -103.95,-31.43 -60.97,0 -77.15,27.67 -77.15,87.38 0,59.78 0,381.32 0,381.32 0,7.86 -6.3,14.26 -14.07,14.26 h -171.64 c -7.74,0 -14.09,-6.4 -14.09,-14.26 0,0 0,-232.86 0,-410.2 0,-177.35 98.84,-220.73 234.81,-220.73 111.56,0 201.5,61.62 201.5,61.62 0,0 4.28,-32.48 6.22,-36.33 1.93,-3.84 6.98,-7.72 12.44,-7.72 l 109.19,0.49 c 7.74,0 14.09,6.4 14.09,14.23 l -0.06,598.64 c 0,7.86 -6.31,14.26 -14.11,14.26" /><path
             inkscape:connector-curvature="0"
             id="path272"
             style="fill:#161312;fill-opacity:1;fill-rule:nonzero;stroke:none"
             d="m 5439.4751,3921.0461 c -58.66,1.78 -98.45,28.4 -98.45,28.4 v 282.41 c 0,0 39.25,24.06 87.41,28.36 60.9,5.45 119.58,-12.94 119.58,-158.22 0,-153.19 -26.48,-183.43 -108.54,-180.95 z m 66.7,502.45 c -96.05,0 -161.38,-42.86 -161.38,-42.86 v 301.98 c 0,7.87 -6.3,14.23 -14.06,14.23 h -170.91 c -7.77,0 -14.08,-6.36 -14.08,-14.23 v -891.78 c 0,-7.87 6.31,-14.27 14.1,-14.27 0.02,0 118.54,0 118.58,0 5.34,0 9.38,2.75 12.37,7.57 2.95,4.8 7.2,41.12 7.2,41.12 0,0 69.88,-66.22 202.17,-66.22 155.32,0 244.39,78.77 244.39,353.65 0,274.89 -142.26,310.81 -238.38,310.81" /><path
             inkscape:connector-curvature="0"
             id="path274"
             style="fill:#161312;fill-opacity:1;fill-rule:nonzero;stroke:none"
             d="m 3635.6551,4404.8861 h -127.84 c 0,0 -0.19,168.85 -0.19,168.88 0,6.4 -3.3,9.59 -10.69,9.59 h -174.2 c -6.78,0 -10.41,-2.98 -10.41,-9.49 v -174.52 c 0,0 -87.3,-21.07 -93.21,-22.78 -5.87,-1.7 -10.2,-7.12 -10.2,-13.59 v -109.67 c 0,-7.89 6.3,-14.25 14.09,-14.25 h 89.32 c 0,0 0,-114.71 0,-263.84 0,-195.97 137.46,-215.22 230.21,-215.22 42.39,0 93.09,13.61 101.46,16.7 5.06,1.86 8,7.11 8,12.79 l 0.15,120.65 c 0,7.86 -6.65,14.23 -14.13,14.23 -7.46,0 -26.51,-3.03 -46.13,-3.03 -62.8,0 -84.07,29.19 -84.07,66.99 0,37.76 -0.01,250.73 -0.01,250.73 h 127.85 c 7.79,0 14.1,6.36 14.1,14.25 v 137.37 c 0,7.87 -6.31,14.21 -14.1,14.21" /></g></g></g></g></svg>