<?xml version="1.0" encoding="UTF-8" standalone="no"?>
<svg
   xmlns:dc="http://purl.org/dc/elements/1.1/"
   xmlns:cc="http://creativecommons.org/ns#"
   xmlns:rdf="http://www.w3.org/1999/02/22-rdf-syntax-ns#"
   xmlns:svg="http://www.w3.org/2000/svg"
   xmlns="http://www.w3.org/2000/svg"
   viewBox="0 0 345.75 334"
   height="334"
   width="345.75"
   xml:space="preserve"
   id="svg2"
   version="1.1"><metadata
     id="metadata8"><rdf:RDF><cc:Work
         rdf:about=""><dc:format>image/svg+xml</dc:format><dc:type
           rdf:resource="http://purl.org/dc/dcmitype/StillImage" /><dc:title></dc:title></cc:Work></rdf:RDF></metadata><defs
     id="defs6"><clipPath
       id="clipPath24"
       clipPathUnits="userSpaceOnUse"><path
         id="path22"
         d="M 44.199,239.801 H 245.801 V 38.199 H 44.199 Z" /></clipPath><clipPath
       id="clipPath34"
       clipPathUnits="userSpaceOnUse"><path
         id="path32"
         d="M 44,37 H 244 V 98 H 44 Z" /></clipPath><clipPath
       id="clipPath50"
       clipPathUnits="userSpaceOnUse"><path
         id="path48"
         d="M 44,37 H 246 V 241 H 44 Z" /></clipPath><clipPath
       id="clipPath260"
       clipPathUnits="userSpaceOnUse"><path
         id="path258"
         d="M 44.199,239.801 H 245.801 V 38.199 H 44.199 Z" /></clipPath><clipPath
       id="clipPath270"
       clipPathUnits="userSpaceOnUse"><path
         id="path268"
         d="M 43,37 H 248 V 95 H 43 Z" /></clipPath><clipPath
       id="clipPath294"
       clipPathUnits="userSpaceOnUse"><path
         id="path292"
         d="m 118,186.5 h 124 v 49 H 118 Z" /></clipPath><mask
       id="mask296"
       height="1"
       width="1"
       y="0"
       x="0"
       maskUnits="userSpaceOnUse"><g
         id="g302"><g
           id="g300"
           clip-path="url(#clipPath294)"><path
             id="path298"
             style="fill:#000000;fill-opacity:0.8;fill-rule:nonzero;stroke:none"
             d="m 118,186.5 h 124 v 49 H 118 Z" /></g></g></mask><clipPath
       id="clipPath310"
       clipPathUnits="userSpaceOnUse"><path
         id="path308"
         d="m 118,186.5 h 124 v 49 H 118 Z" /></clipPath><clipPath
       id="clipPath314"
       clipPathUnits="userSpaceOnUse"><path
         id="path312"
         d="m 118,187 h 124 v 49 H 118 Z" /></clipPath></defs><g
     transform="matrix(1.3333333,0,0,-1.3333333,0,334)"
     id="g10"><g
       id="g12"><path
         id="path14"
         style="fill:#ffffff;fill-opacity:1;fill-rule:nonzero;stroke:none"
         d="M 0,250.5 H 259.312 V 0 H 0 Z" /><path
         id="path16"
         style="fill:#ffffff;fill-opacity:1;fill-rule:nonzero;stroke:none"
         d="M 44.199,239.801 H 245.801 V 38.199 H 44.199 Z" /></g><g
       id="g18"><g
         clip-path="url(#clipPath24)"
         id="g20"><g
           transform="translate(0,-0.5)"
           id="g26"><g
             id="g28"><g
               clip-path="url(#clipPath34)"
               id="g30"><g
                 id="g36"><g
                   transform="matrix(1,0,0,-1,0,251)"
                   id="g38"><path
                     id="path40"
                     style="fill:none;stroke:#30a2da;stroke-width:2;stroke-linecap:butt;stroke-linejoin:round;stroke-miterlimit:4;stroke-dasharray:2, 3.3;stroke-dashoffset:0;stroke-opacity:1"
                     d="M 44.402,212.301 H 145 l 0.203,-0.508 1.609,0.203 2.825,0.086 3.832,-0.105 2.418,-0.27 1.613,-0.379 1.207,-0.492 1.012,-0.637 0.804,-0.734 0.805,-1.024 0.809,-1.425 0.804,-2.004 0.809,-2.817 0.605,-2.847 0.602,-3.692 1.211,-8.261 0.605,-2.426 0.403,-0.918 0.402,-0.442 0.402,-0.05 0.407,0.246 0.605,0.742 2.82,4.219 0.809,0.629 0.602,0.23 0.605,0.02 0.606,-0.18 0.605,-0.387 0.805,-0.82 0.808,-1.164 1.008,-1.934 1.008,-2.441 1.207,-3.555 1.414,-4.867 4.234,-15.195 0.805,-1.965 0.805,-1.364 0.605,-0.601 0.606,-0.262 0.605,0.067 0.606,0.351 0.605,0.606 0.805,1.14 1.008,1.836 2.824,5.512 0.805,1.058 0.804,0.735 0.809,0.43 0.805,0.148 0.808,-0.102 0.805,-0.312 1.008,-0.621 1.414,-1.16 3.625,-3.121 1.211,-0.707 1.211,-0.426 1.007,-0.133 1.211,0.086 1.207,0.308 1.817,0.731 3.023,1.234 1.613,0.395 1.411,0.137 1.613,-0.075 2.016,-0.343 5.039,-0.977 2.218,-0.129 2.418,0.11 9.075,0.671 4.031,-0.144 0.199,-0.008" /></g></g></g></g></g><g
           transform="translate(0,-0.5)"
           id="g42"><g
             id="g44"><g
               clip-path="url(#clipPath50)"
               id="g46"><g
                 id="g52"><g
                   transform="matrix(1,0,0,-1,0,251)"
                   id="g54"><path
                     id="path56"
                     style="fill:none;stroke:#fc4f30;stroke-width:2;stroke-linecap:butt;stroke-linejoin:round;stroke-miterlimit:4;stroke-dasharray:7.4, 3.2;stroke-dashoffset:0;stroke-opacity:1"
                     d="m 44.402,212.301 h 60.278 l 0.203,-201.602 1.008,40.711 1.007,31.664 1.008,24.625 1.008,19.078 1.008,14.676 1.008,11.129 0.804,6.801 0.809,5.246 0.805,3.957 0.808,2.887 0.805,1.988 0.605,0.984 0.606,0.606 0.605,0.269 0.602,-0.035 0.605,-0.308 0.606,-0.555 0.808,-1.086 0.805,-1.441 1.008,-2.247 1.211,-3.281 1.41,-4.551 2.016,-6.867 0.605,-1.199 0.606,-0.82 0.804,-0.649 0.809,-0.297 1.207,-0.097 1.816,0.207 0.805,4.027 0.809,3.184 0.804,2.465 0.809,1.851 0.805,1.328 0.804,0.879 0.809,0.5 0.805,0.188 0.808,-0.067 0.805,-0.273 1.008,-0.555 1.613,-1.211 3.629,-2.914 1.41,-0.797 1.211,-0.429 1.211,-0.184 1.207,0.074 1.211,0.332 2.015,0.899 2.418,1.015 1.817,0.512 1.211,0.164 1.41,-0.027 2.016,-0.293 5.847,-1 2.215,-0.09 2.621,0.129 7.863,0.543 3.832,-0.102 6.852,-0.203 6.652,0.106 7.258,0.027 14.719,-0.027 H 246" /></g></g></g></g></g></g></g><g
       id="g58"><g
         transform="matrix(1,0,0,-1,0,250.5)"
         id="g60"><path
           id="path62"
           style="fill:none;stroke:#000000;stroke-width:0.80000001;stroke-linecap:butt;stroke-linejoin:round;stroke-miterlimit:4;stroke-dasharray:none;stroke-opacity:1"
           d="m 44.199,212.301 v 3.5" /></g><path
         id="path64"
         style="fill:#000000;fill-opacity:1;fill-rule:nonzero;stroke:none"
         d="m 44.195,30.242 c -0.504,0 -0.886,-0.25 -1.144,-0.75 -0.254,-0.5 -0.383,-1.25 -0.383,-2.254 0,-1 0.129,-1.746 0.383,-2.246 0.258,-0.5 0.64,-0.75 1.144,-0.75 0.512,0 0.895,0.25 1.153,0.75 0.254,0.5 0.382,1.246 0.382,2.246 0,1.004 -0.128,1.754 -0.382,2.254 -0.258,0.5 -0.641,0.75 -1.153,0.75 z m 0,0.781 c 0.821,0 1.446,-0.324 1.875,-0.968 0.43,-0.649 0.649,-1.586 0.649,-2.817 0,-1.226 -0.219,-2.164 -0.649,-2.808 -0.429,-0.649 -1.054,-0.969 -1.875,-0.969 -0.816,0 -1.437,0.32 -1.871,0.969 -0.429,0.644 -0.644,1.582 -0.644,2.808 0,1.231 0.215,2.168 0.644,2.817 0.434,0.644 1.055,0.968 1.871,0.968 z" /><g
         transform="matrix(1,0,0,-1,0,250.5)"
         id="g66"><path
           id="path68"
           style="fill:none;stroke:#000000;stroke-width:0.80000001;stroke-linecap:butt;stroke-linejoin:round;stroke-miterlimit:4;stroke-dasharray:none;stroke-opacity:1"
           d="m 84.52,212.301 v 3.5" /></g><path
         id="path70"
         style="fill:#000000;fill-opacity:1;fill-rule:nonzero;stroke:none"
         d="m 83.258,24.43 h 3.441 V 23.602 H 82.07 v 0.828 c 0.375,0.39 0.887,0.91 1.532,1.562 0.648,0.653 1.054,1.074 1.218,1.262 0.317,0.355 0.535,0.656 0.66,0.902 0.125,0.246 0.192,0.485 0.192,0.723 0,0.387 -0.137,0.703 -0.41,0.949 -0.27,0.242 -0.625,0.367 -1.063,0.367 -0.308,0 -0.637,-0.054 -0.98,-0.164 -0.34,-0.105 -0.707,-0.269 -1.098,-0.488 v 0.996 c 0.395,0.16 0.766,0.281 1.113,0.363 0.344,0.082 0.661,0.121 0.946,0.121 0.758,0 1.359,-0.187 1.808,-0.566 0.45,-0.379 0.672,-0.883 0.672,-1.512 0,-0.3 -0.055,-0.586 -0.168,-0.855 -0.113,-0.266 -0.316,-0.582 -0.613,-0.949 -0.082,-0.094 -0.34,-0.368 -0.777,-0.817 -0.434,-0.453 -1.051,-1.082 -1.844,-1.894 z" /><g
         transform="matrix(1,0,0,-1,0,250.5)"
         id="g72"><path
           id="path74"
           style="fill:none;stroke:#000000;stroke-width:0.80000001;stroke-linecap:butt;stroke-linejoin:round;stroke-miterlimit:4;stroke-dasharray:none;stroke-opacity:1"
           d="m 124.84,212.301 v 3.5" /></g><path
         id="path76"
         style="fill:#000000;fill-opacity:1;fill-rule:nonzero;stroke:none"
         d="m 125.438,30.031 -2.489,-3.89 h 2.489 z m -0.258,0.86 h 1.238 v -4.75 h 1.043 V 25.32 h -1.043 v -1.718 h -0.98 v 1.718 h -3.29 v 0.953 z" /><g
         transform="matrix(1,0,0,-1,0,250.5)"
         id="g78"><path
           id="path80"
           style="fill:none;stroke:#000000;stroke-width:0.80000001;stroke-linecap:butt;stroke-linejoin:round;stroke-miterlimit:4;stroke-dasharray:none;stroke-opacity:1"
           d="m 165.16,212.301 v 3.5" /></g><path
         id="path82"
         style="fill:#000000;fill-opacity:1;fill-rule:nonzero;stroke:none"
         d="m 165.281,27.641 c -0.445,0 -0.793,-0.153 -1.054,-0.457 -0.258,-0.301 -0.387,-0.715 -0.387,-1.243 0,-0.523 0.129,-0.937 0.387,-1.246 0.261,-0.3 0.609,-0.453 1.054,-0.453 0.442,0 0.793,0.153 1.051,0.453 0.258,0.309 0.387,0.723 0.387,1.246 0,0.528 -0.129,0.942 -0.387,1.243 -0.258,0.304 -0.609,0.457 -1.051,0.457 z m 1.957,3.089 v -0.898 c -0.25,0.117 -0.5,0.207 -0.75,0.27 -0.254,0.062 -0.504,0.093 -0.75,0.093 -0.652,0 -1.148,-0.222 -1.492,-0.66 -0.344,-0.441 -0.539,-1.105 -0.586,-1.992 0.192,0.281 0.43,0.5 0.719,0.652 0.293,0.149 0.609,0.227 0.961,0.227 0.73,0 1.308,-0.223 1.734,-0.668 0.426,-0.445 0.637,-1.047 0.637,-1.813 0,-0.75 -0.223,-1.351 -0.664,-1.804 -0.442,-0.453 -1.031,-0.676 -1.766,-0.676 -0.843,0 -1.488,0.32 -1.933,0.969 -0.45,0.644 -0.672,1.582 -0.672,2.808 0,1.153 0.273,2.071 0.82,2.758 0.547,0.684 1.281,1.027 2.203,1.027 0.246,0 0.496,-0.023 0.75,-0.074 0.25,-0.047 0.516,-0.121 0.789,-0.219 z" /><g
         transform="matrix(1,0,0,-1,0,250.5)"
         id="g84"><path
           id="path86"
           style="fill:none;stroke:#000000;stroke-width:0.80000001;stroke-linecap:butt;stroke-linejoin:round;stroke-miterlimit:4;stroke-dasharray:none;stroke-opacity:1"
           d="m 205.48,212.301 v 3.5" /></g><path
         id="path88"
         style="fill:#000000;fill-opacity:1;fill-rule:nonzero;stroke:none"
         d="m 205.477,27.062 c -0.469,0 -0.836,-0.124 -1.106,-0.374 -0.269,-0.25 -0.402,-0.598 -0.402,-1.036 0,-0.437 0.133,-0.785 0.402,-1.035 0.27,-0.25 0.637,-0.375 1.106,-0.375 0.468,0 0.839,0.125 1.109,0.375 0.269,0.254 0.406,0.598 0.406,1.035 0,0.438 -0.137,0.786 -0.406,1.036 -0.266,0.25 -0.637,0.374 -1.109,0.374 z m -0.985,0.422 c -0.426,0.102 -0.754,0.301 -0.992,0.59 -0.234,0.289 -0.352,0.645 -0.352,1.059 0,0.582 0.207,1.043 0.622,1.383 0.418,0.339 0.984,0.507 1.707,0.507 0.726,0 1.296,-0.168 1.711,-0.507 0.414,-0.34 0.617,-0.801 0.617,-1.383 0,-0.414 -0.117,-0.77 -0.352,-1.059 -0.238,-0.289 -0.562,-0.488 -0.984,-0.59 0.476,-0.113 0.843,-0.328 1.109,-0.652 0.266,-0.32 0.399,-0.715 0.399,-1.18 0,-0.707 -0.215,-1.25 -0.649,-1.629 -0.43,-0.375 -1.047,-0.562 -1.851,-0.562 -0.805,0 -1.422,0.187 -1.852,0.562 -0.434,0.379 -0.648,0.922 -0.648,1.629 0,0.465 0.132,0.86 0.398,1.18 0.27,0.324 0.641,0.539 1.117,0.652 z m -0.363,1.555 c 0,-0.375 0.117,-0.668 0.355,-0.883 0.235,-0.211 0.567,-0.316 0.993,-0.316 0.425,0 0.753,0.105 0.992,0.316 0.242,0.215 0.359,0.508 0.359,0.883 0,0.379 -0.117,0.676 -0.359,0.887 -0.239,0.211 -0.567,0.316 -0.992,0.316 -0.426,0 -0.758,-0.105 -0.993,-0.316 -0.238,-0.211 -0.355,-0.508 -0.355,-0.887 z" /><g
         transform="matrix(1,0,0,-1,0,250.5)"
         id="g90"><path
           id="path92"
           style="fill:none;stroke:#000000;stroke-width:0.80000001;stroke-linecap:butt;stroke-linejoin:round;stroke-miterlimit:4;stroke-dasharray:none;stroke-opacity:1"
           d="m 245.801,212.301 v 3.5" /></g><path
         id="path94"
         style="fill:#000000;fill-opacity:1;fill-rule:nonzero;stroke:none"
         d="m 240.68,24.43 h 1.609 v 5.562 l -1.754,-0.351 v 0.898 l 1.746,0.352 h 0.985 V 24.43 h 1.609 v -0.828 h -4.195 z" /><path
         id="path96"
         style="fill:#000000;fill-opacity:1;fill-rule:nonzero;stroke:none"
         d="m 248.977,30.242 c -0.508,0 -0.887,-0.25 -1.145,-0.75 -0.254,-0.5 -0.383,-1.25 -0.383,-2.254 0,-1 0.129,-1.746 0.383,-2.246 0.258,-0.5 0.637,-0.75 1.145,-0.75 0.511,0 0.894,0.25 1.152,0.75 0.254,0.5 0.383,1.246 0.383,2.246 0,1.004 -0.129,1.754 -0.383,2.254 -0.258,0.5 -0.641,0.75 -1.152,0.75 z m 0,0.781 c 0.82,0 1.445,-0.324 1.875,-0.968 0.429,-0.649 0.648,-1.586 0.648,-2.817 0,-1.226 -0.219,-2.164 -0.648,-2.808 -0.43,-0.649 -1.055,-0.969 -1.875,-0.969 -0.817,0 -1.438,0.32 -1.872,0.969 -0.429,0.644 -0.644,1.582 -0.644,2.808 0,1.231 0.215,2.168 0.644,2.817 0.434,0.644 1.055,0.968 1.872,0.968 z" /><path
         id="path98"
         style="fill:#000000;fill-opacity:1;fill-rule:nonzero;stroke:none"
         d="m 100.035,15.23 v -0.847 c -0.254,0.129 -0.515,0.226 -0.789,0.289 -0.273,0.066 -0.558,0.101 -0.851,0.101 -0.446,0 -0.782,-0.07 -1.004,-0.207 -0.223,-0.136 -0.332,-0.339 -0.332,-0.613 0,-0.211 0.078,-0.375 0.238,-0.492 0.16,-0.117 0.48,-0.231 0.961,-0.34 l 0.308,-0.066 c 0.637,-0.137 1.09,-0.332 1.36,-0.578 0.269,-0.25 0.402,-0.598 0.402,-1.043 0,-0.508 -0.199,-0.911 -0.601,-1.207 C 99.324,9.93 98.773,9.781 98.07,9.781 c -0.293,0 -0.597,0.028 -0.918,0.086 -0.316,0.059 -0.652,0.145 -1.004,0.258 v 0.926 c 0.332,-0.172 0.661,-0.301 0.985,-0.387 0.32,-0.086 0.64,-0.129 0.957,-0.129 0.422,0 0.746,0.07 0.972,0.215 0.231,0.145 0.344,0.352 0.344,0.613 0,0.246 -0.082,0.43 -0.246,0.563 -0.164,0.129 -0.523,0.254 -1.082,0.375 l -0.312,0.074 c -0.555,0.117 -0.957,0.297 -1.207,0.539 -0.247,0.242 -0.371,0.574 -0.371,1 0,0.512 0.183,0.91 0.546,1.188 0.368,0.281 0.883,0.421 1.555,0.421 0.332,0 0.645,-0.023 0.938,-0.074 0.293,-0.047 0.562,-0.121 0.808,-0.219 z" /><path
         id="path100"
         style="fill:#000000;fill-opacity:1;fill-rule:nonzero;stroke:none"
         d="m 106.438,12.883 v -0.438 h -4.129 c 0.039,-0.621 0.222,-1.09 0.558,-1.414 0.332,-0.324 0.797,-0.488 1.395,-0.488 0.343,0 0.676,0.043 1,0.129 0.324,0.082 0.648,0.211 0.968,0.379 v -0.848 c -0.324,-0.137 -0.656,-0.242 -0.992,-0.312 -0.34,-0.075 -0.683,-0.11 -1.031,-0.11 -0.875,0 -1.562,0.254 -2.074,0.762 -0.508,0.508 -0.762,1.195 -0.762,2.062 0,0.895 0.238,1.606 0.723,2.129 0.484,0.528 1.136,0.789 1.957,0.789 0.734,0 1.316,-0.238 1.746,-0.711 0.426,-0.472 0.641,-1.117 0.641,-1.929 z m -0.899,0.265 c -0.004,0.489 -0.144,0.879 -0.41,1.172 -0.27,0.297 -0.625,0.442 -1.07,0.442 -0.5,0 -0.903,-0.141 -1.204,-0.426 -0.3,-0.281 -0.472,-0.68 -0.519,-1.195 z" /><path
         id="path102"
         style="fill:#000000;fill-opacity:1;fill-rule:nonzero;stroke:none"
         d="M 108.781,10.742 V 7.844 h -0.902 v 7.547 h 0.902 v -0.829 c 0.188,0.325 0.43,0.567 0.715,0.723 0.289,0.16 0.633,0.238 1.035,0.238 0.664,0 1.203,-0.261 1.617,-0.789 0.414,-0.527 0.625,-1.222 0.625,-2.082 0,-0.859 -0.211,-1.55 -0.625,-2.082 -0.414,-0.527 -0.953,-0.789 -1.617,-0.789 -0.402,0 -0.746,0.078 -1.035,0.239 -0.285,0.156 -0.527,0.398 -0.715,0.722 z m 3.059,1.91 c 0,0.66 -0.137,1.18 -0.41,1.555 -0.27,0.375 -0.645,0.566 -1.118,0.566 -0.476,0 -0.851,-0.191 -1.124,-0.566 -0.27,-0.375 -0.407,-0.895 -0.407,-1.555 0,-0.66 0.137,-1.179 0.407,-1.554 0.273,-0.375 0.648,-0.563 1.124,-0.563 0.473,0 0.848,0.188 1.118,0.563 0.273,0.375 0.41,0.894 0.41,1.554 z" /><path
         id="path104"
         style="fill:#000000;fill-opacity:1;fill-rule:nonzero;stroke:none"
         d="m 116.746,12.672 c -0.726,0 -1.23,-0.082 -1.508,-0.25 -0.281,-0.164 -0.422,-0.449 -0.422,-0.848 0,-0.32 0.106,-0.574 0.317,-0.762 0.211,-0.183 0.496,-0.277 0.855,-0.277 0.5,0 0.899,0.176 1.2,0.527 0.3,0.356 0.453,0.825 0.453,1.411 v 0.199 z m 1.793,0.371 V 9.922 h -0.898 v 0.832 c -0.207,-0.332 -0.461,-0.578 -0.77,-0.734 -0.305,-0.161 -0.68,-0.239 -1.121,-0.239 -0.559,0 -1.004,0.157 -1.336,0.473 -0.332,0.312 -0.496,0.734 -0.496,1.262 0,0.613 0.207,1.078 0.617,1.39 0.414,0.313 1.027,0.469 1.844,0.469 h 1.262 v 0.09 c 0,0.414 -0.137,0.734 -0.411,0.957 -0.269,0.226 -0.652,0.34 -1.144,0.34 -0.313,0 -0.617,-0.035 -0.914,-0.114 -0.297,-0.074 -0.578,-0.187 -0.852,-0.336 v 0.833 c 0.328,0.125 0.645,0.222 0.957,0.285 0.309,0.062 0.61,0.093 0.903,0.093 0.789,0 1.382,-0.207 1.773,-0.617 0.391,-0.406 0.586,-1.027 0.586,-1.863 z" /><path
         id="path106"
         style="fill:#000000;fill-opacity:1;fill-rule:nonzero;stroke:none"
         d="m 123.555,14.555 c -0.098,0.058 -0.211,0.097 -0.328,0.125 -0.118,0.031 -0.25,0.043 -0.391,0.043 -0.508,0 -0.898,-0.164 -1.172,-0.496 -0.273,-0.329 -0.406,-0.805 -0.406,-1.422 V 9.922 h -0.906 v 5.469 h 0.906 v -0.848 c 0.187,0.332 0.433,0.578 0.734,0.738 0.305,0.16 0.672,0.242 1.106,0.242 0.062,0 0.129,-0.003 0.207,-0.011 0.074,-0.008 0.156,-0.02 0.246,-0.035 z" /><path
         id="path108"
         style="fill:#000000;fill-opacity:1;fill-rule:nonzero;stroke:none"
         d="m 126.984,12.672 c -0.726,0 -1.226,-0.082 -1.507,-0.25 -0.282,-0.164 -0.422,-0.449 -0.422,-0.848 0,-0.32 0.105,-0.574 0.316,-0.762 0.211,-0.183 0.496,-0.277 0.856,-0.277 0.5,0 0.898,0.176 1.199,0.527 0.301,0.356 0.453,0.825 0.453,1.411 v 0.199 z m 1.793,0.371 V 9.922 h -0.898 v 0.832 c -0.207,-0.332 -0.461,-0.578 -0.766,-0.734 -0.308,-0.161 -0.683,-0.239 -1.125,-0.239 -0.558,0 -1.004,0.157 -1.336,0.473 -0.332,0.312 -0.496,0.734 -0.496,1.262 0,0.613 0.207,1.078 0.617,1.39 0.415,0.313 1.028,0.469 1.844,0.469 h 1.262 v 0.09 c 0,0.414 -0.137,0.734 -0.406,0.957 -0.274,0.226 -0.657,0.34 -1.149,0.34 -0.312,0 -0.617,-0.035 -0.914,-0.114 -0.293,-0.074 -0.578,-0.187 -0.851,-0.336 v 0.833 c 0.328,0.125 0.648,0.222 0.957,0.285 0.308,0.062 0.609,0.093 0.902,0.093 0.793,0 1.383,-0.207 1.773,-0.617 0.391,-0.406 0.586,-1.027 0.586,-1.863 z" /><path
         id="path110"
         style="fill:#000000;fill-opacity:1;fill-rule:nonzero;stroke:none"
         d="m 131.516,16.945 v -1.554 h 1.851 v -0.696 h -1.851 v -2.968 c 0,-0.45 0.062,-0.735 0.183,-0.86 0.121,-0.129 0.371,-0.191 0.746,-0.191 h 0.922 V 9.922 h -0.922 c -0.695,0 -1.172,0.129 -1.437,0.39 -0.262,0.258 -0.395,0.731 -0.395,1.415 v 2.968 h -0.66 v 0.696 h 0.66 v 1.554 z" /><path
         id="path112"
         style="fill:#000000;fill-opacity:1;fill-rule:nonzero;stroke:none"
         d="m 134.547,15.391 h 0.898 V 9.922 h -0.898 z m 0,2.132 h 0.898 v -1.14 h -0.898 z" /><path
         id="path114"
         style="fill:#000000;fill-opacity:1;fill-rule:nonzero;stroke:none"
         d="m 139.445,14.762 c -0.48,0 -0.863,-0.188 -1.14,-0.563 -0.282,-0.375 -0.422,-0.89 -0.422,-1.547 0,-0.652 0.14,-1.168 0.418,-1.543 0.277,-0.379 0.66,-0.566 1.144,-0.566 0.481,0 0.86,0.187 1.137,0.566 0.281,0.379 0.422,0.895 0.422,1.543 0,0.649 -0.141,1.164 -0.422,1.543 -0.277,0.379 -0.656,0.567 -1.137,0.567 z m 0,0.761 c 0.782,0 1.395,-0.253 1.84,-0.761 0.449,-0.508 0.672,-1.211 0.672,-2.11 0,-0.894 -0.223,-1.597 -0.672,-2.105 -0.445,-0.512 -1.058,-0.766 -1.84,-0.766 -0.785,0 -1.398,0.254 -1.843,0.766 -0.446,0.508 -0.664,1.211 -0.664,2.105 0,0.899 0.218,1.602 0.664,2.11 0.445,0.508 1.058,0.761 1.843,0.761 z" /><path
         id="path116"
         style="fill:#000000;fill-opacity:1;fill-rule:nonzero;stroke:none"
         d="M 147.992,13.227 V 9.922 h -0.898 v 3.273 c 0,0.52 -0.102,0.907 -0.305,1.16 -0.203,0.258 -0.504,0.387 -0.906,0.387 -0.485,0 -0.867,-0.156 -1.149,-0.465 -0.281,-0.308 -0.422,-0.73 -0.422,-1.261 V 9.922 h -0.902 v 5.469 h 0.902 v -0.848 c 0.215,0.328 0.469,0.574 0.762,0.738 0.289,0.16 0.625,0.242 1.008,0.242 0.629,0 1.102,-0.195 1.426,-0.582 0.32,-0.39 0.484,-0.961 0.484,-1.714 z" /><path
         id="path118"
         style="fill:#000000;fill-opacity:1;fill-rule:nonzero;stroke:none"
         d="m 156.559,14.562 v 2.961 h 0.898 V 9.922 h -0.898 v 0.82 c -0.188,-0.324 -0.426,-0.566 -0.715,-0.722 -0.289,-0.161 -0.633,-0.239 -1.039,-0.239 -0.66,0 -1.196,0.262 -1.614,0.789 -0.414,0.532 -0.621,1.223 -0.621,2.082 0,0.86 0.207,1.555 0.621,2.082 0.418,0.528 0.954,0.789 1.614,0.789 0.406,0 0.75,-0.078 1.039,-0.238 0.289,-0.156 0.527,-0.398 0.715,-0.723 z m -3.059,-1.91 c 0,-0.66 0.133,-1.179 0.406,-1.554 0.274,-0.375 0.645,-0.563 1.121,-0.563 0.473,0 0.848,0.188 1.121,0.563 0.274,0.375 0.411,0.894 0.411,1.554 0,0.66 -0.137,1.18 -0.411,1.555 -0.273,0.375 -0.648,0.566 -1.121,0.566 -0.476,0 -0.847,-0.191 -1.121,-0.566 -0.273,-0.375 -0.406,-0.895 -0.406,-1.555 z" /><path
         id="path120"
         style="fill:#000000;fill-opacity:1;fill-rule:nonzero;stroke:none"
         d="m 159.309,15.391 h 0.898 V 9.922 h -0.898 z m 0,2.132 h 0.898 v -1.14 h -0.898 z" /><path
         id="path122"
         style="fill:#000000;fill-opacity:1;fill-rule:nonzero;stroke:none"
         d="m 165.574,15.23 v -0.847 c -0.254,0.129 -0.519,0.226 -0.793,0.289 -0.273,0.066 -0.554,0.101 -0.847,0.101 -0.446,0 -0.782,-0.07 -1.004,-0.207 -0.223,-0.136 -0.336,-0.339 -0.336,-0.613 0,-0.211 0.082,-0.375 0.238,-0.492 0.16,-0.117 0.48,-0.231 0.965,-0.34 l 0.308,-0.066 c 0.637,-0.137 1.09,-0.332 1.36,-0.578 0.265,-0.25 0.402,-0.598 0.402,-1.043 0,-0.508 -0.203,-0.911 -0.605,-1.207 -0.399,-0.297 -0.953,-0.446 -1.657,-0.446 -0.293,0 -0.597,0.028 -0.914,0.086 -0.32,0.059 -0.652,0.145 -1.003,0.258 v 0.926 c 0.332,-0.172 0.66,-0.301 0.98,-0.387 0.32,-0.086 0.641,-0.129 0.957,-0.129 0.426,0 0.75,0.07 0.977,0.215 0.226,0.145 0.339,0.352 0.339,0.613 0,0.246 -0.082,0.43 -0.246,0.563 -0.164,0.129 -0.523,0.254 -1.082,0.375 l -0.312,0.074 c -0.555,0.117 -0.957,0.297 -1.203,0.539 -0.25,0.242 -0.371,0.574 -0.371,1 0,0.512 0.183,0.91 0.546,1.188 0.364,0.281 0.883,0.421 1.551,0.421 0.332,0 0.645,-0.023 0.938,-0.074 0.293,-0.047 0.562,-0.121 0.812,-0.219 z" /><path
         id="path124"
         style="fill:#000000;fill-opacity:1;fill-rule:nonzero;stroke:none"
         d="m 168.188,16.945 v -1.554 h 1.847 v -0.696 h -1.847 v -2.968 c 0,-0.45 0.058,-0.735 0.179,-0.86 0.125,-0.129 0.371,-0.191 0.746,-0.191 h 0.922 V 9.922 h -0.922 c -0.691,0 -1.172,0.129 -1.433,0.39 -0.266,0.258 -0.399,0.731 -0.399,1.415 v 2.968 h -0.656 v 0.696 h 0.656 v 1.554 z" /><path
         id="path126"
         style="fill:#000000;fill-opacity:1;fill-rule:nonzero;stroke:none"
         d="m 173.703,12.672 c -0.726,0 -1.226,-0.082 -1.508,-0.25 -0.281,-0.164 -0.422,-0.449 -0.422,-0.848 0,-0.32 0.106,-0.574 0.317,-0.762 0.211,-0.183 0.496,-0.277 0.855,-0.277 0.5,0 0.899,0.176 1.2,0.527 0.3,0.356 0.453,0.825 0.453,1.411 v 0.199 z m 1.793,0.371 V 9.922 h -0.898 v 0.832 c -0.207,-0.332 -0.461,-0.578 -0.766,-0.734 -0.309,-0.161 -0.684,-0.239 -1.125,-0.239 -0.559,0 -1.004,0.157 -1.336,0.473 -0.332,0.312 -0.496,0.734 -0.496,1.262 0,0.613 0.207,1.078 0.617,1.39 0.414,0.313 1.028,0.469 1.844,0.469 h 1.262 v 0.09 c 0,0.414 -0.137,0.734 -0.407,0.957 -0.273,0.226 -0.656,0.34 -1.148,0.34 -0.313,0 -0.617,-0.035 -0.914,-0.114 -0.293,-0.074 -0.578,-0.187 -0.852,-0.336 v 0.833 c 0.328,0.125 0.649,0.222 0.957,0.285 0.309,0.062 0.61,0.093 0.903,0.093 0.793,0 1.383,-0.207 1.773,-0.617 0.391,-0.406 0.586,-1.027 0.586,-1.863 z" /><path
         id="path128"
         style="fill:#000000;fill-opacity:1;fill-rule:nonzero;stroke:none"
         d="M 181.895,13.227 V 9.922 h -0.899 v 3.273 c 0,0.52 -0.101,0.907 -0.305,1.16 -0.203,0.258 -0.503,0.387 -0.906,0.387 -0.488,0 -0.871,-0.156 -1.148,-0.465 -0.282,-0.308 -0.422,-0.73 -0.422,-1.261 V 9.922 h -0.903 v 5.469 h 0.903 v -0.848 c 0.215,0.328 0.469,0.574 0.758,0.738 0.293,0.16 0.629,0.242 1.011,0.242 0.629,0 1.102,-0.195 1.426,-0.582 0.32,-0.39 0.485,-0.961 0.485,-1.714 z" /><path
         id="path130"
         style="fill:#000000;fill-opacity:1;fill-rule:nonzero;stroke:none"
         d="m 187.621,15.184 v -0.84 c -0.254,0.14 -0.512,0.246 -0.766,0.312 -0.253,0.071 -0.511,0.106 -0.773,0.106 -0.582,0 -1.035,-0.184 -1.359,-0.555 -0.321,-0.367 -0.485,-0.887 -0.485,-1.555 0,-0.668 0.164,-1.187 0.485,-1.554 0.324,-0.371 0.777,-0.555 1.359,-0.555 0.262,0 0.52,0.035 0.773,0.105 0.254,0.071 0.512,0.176 0.766,0.317 v -0.832 c -0.254,-0.117 -0.512,-0.203 -0.781,-0.262 -0.266,-0.059 -0.555,-0.09 -0.856,-0.09 -0.824,0 -1.48,0.258 -1.964,0.778 -0.485,0.515 -0.727,1.214 -0.727,2.093 0,0.891 0.246,1.594 0.734,2.106 0.493,0.512 1.164,0.765 2.016,0.765 0.277,0 0.547,-0.027 0.809,-0.085 0.265,-0.055 0.519,-0.141 0.769,-0.254 z" /><path
         id="path132"
         style="fill:#000000;fill-opacity:1;fill-rule:nonzero;stroke:none"
         d="m 193.859,12.883 v -0.438 h -4.129 c 0.04,-0.621 0.223,-1.09 0.559,-1.414 0.332,-0.324 0.797,-0.488 1.395,-0.488 0.343,0 0.675,0.043 1,0.129 0.324,0.082 0.648,0.211 0.968,0.379 v -0.848 c -0.324,-0.137 -0.656,-0.242 -0.992,-0.312 -0.34,-0.075 -0.683,-0.11 -1.031,-0.11 -0.875,0 -1.563,0.254 -2.074,0.762 -0.508,0.508 -0.762,1.195 -0.762,2.062 0,0.895 0.238,1.606 0.723,2.129 0.484,0.528 1.136,0.789 1.957,0.789 0.734,0 1.316,-0.238 1.746,-0.711 0.426,-0.472 0.64,-1.117 0.64,-1.929 z m -0.898,0.265 c -0.004,0.489 -0.145,0.879 -0.41,1.172 -0.27,0.297 -0.625,0.442 -1.071,0.442 -0.5,0 -0.902,-0.141 -1.203,-0.426 -0.3,-0.281 -0.472,-0.68 -0.519,-1.195 z" /><g
         transform="matrix(1,0,0,-1,0,250.5)"
         id="g134"><path
           id="path136"
           style="fill:none;stroke:#000000;stroke-width:0.80000001;stroke-linecap:butt;stroke-linejoin:round;stroke-miterlimit:4;stroke-dasharray:none;stroke-opacity:1"
           d="m 44.199,212.301 h -3.5" /></g><path
         id="path138"
         style="fill:#000000;fill-opacity:1;fill-rule:nonzero;stroke:none"
         d="m 24.477,41.043 c -0.508,0 -0.891,-0.25 -1.149,-0.75 -0.254,-0.5 -0.383,-1.25 -0.383,-2.254 0,-1 0.129,-1.75 0.383,-2.25 0.258,-0.5 0.641,-0.75 1.149,-0.75 0.511,0 0.894,0.25 1.148,0.75 0.258,0.5 0.383,1.25 0.383,2.25 0,1.004 -0.125,1.754 -0.383,2.254 -0.254,0.5 -0.637,0.75 -1.148,0.75 z m 0,0.781 c 0.816,0 1.441,-0.324 1.871,-0.972 0.433,-0.645 0.648,-1.582 0.648,-2.813 0,-1.227 -0.215,-2.164 -0.648,-2.812 -0.43,-0.645 -1.055,-0.969 -1.871,-0.969 -0.817,0 -1.442,0.324 -1.875,0.969 -0.43,0.648 -0.645,1.585 -0.645,2.812 0,1.231 0.215,2.168 0.645,2.813 0.433,0.648 1.058,0.972 1.875,0.972 z" /><path
         id="path140"
         style="fill:#000000;fill-opacity:1;fill-rule:nonzero;stroke:none"
         d="m 28.727,35.641 h 1.031 v -1.238 h -1.031 z" /><path
         id="path142"
         style="fill:#000000;fill-opacity:1;fill-rule:nonzero;stroke:none"
         d="m 34.016,41.043 c -0.508,0 -0.887,-0.25 -1.145,-0.75 -0.254,-0.5 -0.383,-1.25 -0.383,-2.254 0,-1 0.129,-1.75 0.383,-2.25 0.258,-0.5 0.637,-0.75 1.145,-0.75 0.511,0 0.894,0.25 1.152,0.75 0.254,0.5 0.383,1.25 0.383,2.25 0,1.004 -0.129,1.754 -0.383,2.254 -0.258,0.5 -0.641,0.75 -1.152,0.75 z m 0,0.781 c 0.816,0 1.441,-0.324 1.875,-0.972 0.429,-0.645 0.644,-1.582 0.644,-2.813 0,-1.227 -0.215,-2.164 -0.644,-2.812 -0.434,-0.645 -1.059,-0.969 -1.875,-0.969 -0.817,0 -1.442,0.324 -1.871,0.969 -0.43,0.648 -0.649,1.585 -0.649,2.812 0,1.231 0.219,2.168 0.649,2.813 0.429,0.648 1.054,0.972 1.871,0.972 z" /><g
         transform="matrix(1,0,0,-1,0,250.5)"
         id="g144"><path
           id="path146"
           style="fill:none;stroke:#000000;stroke-width:0.80000001;stroke-linecap:butt;stroke-linejoin:round;stroke-miterlimit:4;stroke-dasharray:none;stroke-opacity:1"
           d="m 44.199,187.223 h -3.5" /></g><path
         id="path148"
         style="fill:#000000;fill-opacity:1;fill-rule:nonzero;stroke:none"
         d="m 24.477,66.121 c -0.508,0 -0.891,-0.25 -1.149,-0.75 -0.254,-0.5 -0.383,-1.25 -0.383,-2.254 0,-1 0.129,-1.75 0.383,-2.25 0.258,-0.5 0.641,-0.75 1.149,-0.75 0.511,0 0.894,0.25 1.148,0.75 0.258,0.5 0.383,1.25 0.383,2.25 0,1.004 -0.125,1.754 -0.383,2.254 -0.254,0.5 -0.637,0.75 -1.148,0.75 z m 0,0.781 c 0.816,0 1.441,-0.324 1.871,-0.972 0.433,-0.645 0.648,-1.582 0.648,-2.813 0,-1.226 -0.215,-2.164 -0.648,-2.812 -0.43,-0.645 -1.055,-0.969 -1.871,-0.969 -0.817,0 -1.442,0.324 -1.875,0.969 -0.43,0.648 -0.645,1.586 -0.645,2.812 0,1.231 0.215,2.168 0.645,2.813 0.433,0.648 1.058,0.972 1.875,0.972 z" /><path
         id="path150"
         style="fill:#000000;fill-opacity:1;fill-rule:nonzero;stroke:none"
         d="m 28.727,60.719 h 1.031 v -1.238 h -1.031 z" /><path
         id="path152"
         style="fill:#000000;fill-opacity:1;fill-rule:nonzero;stroke:none"
         d="m 31.918,66.77 h 3.871 V 65.938 H 32.82 v -1.786 c 0.145,0.051 0.285,0.086 0.43,0.11 0.145,0.023 0.285,0.035 0.43,0.035 0.812,0 1.457,-0.223 1.933,-0.668 0.477,-0.445 0.715,-1.047 0.715,-1.809 0,-0.785 -0.246,-1.394 -0.734,-1.832 -0.489,-0.433 -1.176,-0.652 -2.067,-0.652 -0.304,0 -0.617,0.027 -0.933,0.078 -0.317,0.055 -0.645,0.133 -0.985,0.234 v 0.993 c 0.293,-0.157 0.598,-0.278 0.911,-0.356 0.312,-0.078 0.64,-0.117 0.988,-0.117 0.562,0 1.012,0.148 1.34,0.445 0.328,0.297 0.492,0.699 0.492,1.207 0,0.508 -0.164,0.907 -0.492,1.203 -0.328,0.297 -0.778,0.446 -1.34,0.446 -0.262,0 -0.528,-0.028 -0.789,-0.086 -0.262,-0.059 -0.528,-0.153 -0.801,-0.274 z" /><g
         transform="matrix(1,0,0,-1,0,250.5)"
         id="g154"><path
           id="path156"
           style="fill:none;stroke:#000000;stroke-width:0.80000001;stroke-linecap:butt;stroke-linejoin:round;stroke-miterlimit:4;stroke-dasharray:none;stroke-opacity:1"
           d="m 44.199,162.141 h -3.5" /></g><path
         id="path158"
         style="fill:#000000;fill-opacity:1;fill-rule:nonzero;stroke:none"
         d="m 22.539,85.391 h 1.609 v 5.562 L 22.395,90.602 V 91.5 l 1.746,0.352 h 0.984 v -6.461 h 1.609 v -0.832 h -4.195 z" /><path
         id="path160"
         style="fill:#000000;fill-opacity:1;fill-rule:nonzero;stroke:none"
         d="m 28.727,85.801 h 1.031 v -1.242 h -1.031 z" /><path
         id="path162"
         style="fill:#000000;fill-opacity:1;fill-rule:nonzero;stroke:none"
         d="m 34.016,91.199 c -0.508,0 -0.887,-0.25 -1.145,-0.75 -0.254,-0.5 -0.383,-1.25 -0.383,-2.254 0,-0.996 0.129,-1.746 0.383,-2.246 0.258,-0.5 0.637,-0.75 1.145,-0.75 0.511,0 0.894,0.25 1.152,0.75 0.254,0.5 0.383,1.25 0.383,2.246 0,1.004 -0.129,1.754 -0.383,2.254 -0.258,0.5 -0.641,0.75 -1.152,0.75 z m 0,0.781 c 0.816,0 1.441,-0.324 1.875,-0.968 0.429,-0.649 0.644,-1.586 0.644,-2.817 0,-1.226 -0.215,-2.164 -0.644,-2.808 -0.434,-0.649 -1.059,-0.969 -1.875,-0.969 -0.817,0 -1.442,0.32 -1.871,0.969 -0.43,0.644 -0.649,1.582 -0.649,2.808 0,1.231 0.219,2.168 0.649,2.817 0.429,0.644 1.054,0.968 1.871,0.968 z" /><g
         transform="matrix(1,0,0,-1,0,250.5)"
         id="g164"><path
           id="path166"
           style="fill:none;stroke:#000000;stroke-width:0.80000001;stroke-linecap:butt;stroke-linejoin:round;stroke-miterlimit:4;stroke-dasharray:none;stroke-opacity:1"
           d="m 44.199,137.062 h -3.5" /></g><path
         id="path168"
         style="fill:#000000;fill-opacity:1;fill-rule:nonzero;stroke:none"
         d="m 22.539,110.469 h 1.609 v 5.562 l -1.753,-0.351 v 0.898 l 1.746,0.352 h 0.984 v -6.461 h 1.609 v -0.832 h -4.195 z" /><path
         id="path170"
         style="fill:#000000;fill-opacity:1;fill-rule:nonzero;stroke:none"
         d="m 28.727,110.879 h 1.031 v -1.242 h -1.031 z" /><path
         id="path172"
         style="fill:#000000;fill-opacity:1;fill-rule:nonzero;stroke:none"
         d="m 31.918,116.93 h 3.871 v -0.832 H 32.82 v -1.786 c 0.145,0.047 0.285,0.086 0.43,0.11 0.145,0.023 0.285,0.035 0.43,0.035 0.812,0 1.457,-0.223 1.933,-0.668 0.477,-0.445 0.715,-1.051 0.715,-1.812 0,-0.786 -0.246,-1.395 -0.734,-1.829 -0.489,-0.433 -1.176,-0.652 -2.067,-0.652 -0.304,0 -0.617,0.027 -0.933,0.078 -0.317,0.051 -0.645,0.129 -0.985,0.235 v 0.992 c 0.293,-0.16 0.598,-0.278 0.911,-0.356 0.312,-0.078 0.64,-0.117 0.988,-0.117 0.562,0 1.012,0.149 1.34,0.442 0.328,0.296 0.492,0.699 0.492,1.207 0,0.507 -0.164,0.91 -0.492,1.207 -0.328,0.296 -0.778,0.445 -1.34,0.445 -0.262,0 -0.528,-0.031 -0.789,-0.09 -0.262,-0.059 -0.528,-0.148 -0.801,-0.273 z" /><g
         transform="matrix(1,0,0,-1,0,250.5)"
         id="g174"><path
           id="path176"
           style="fill:none;stroke:#000000;stroke-width:0.80000001;stroke-linecap:butt;stroke-linejoin:round;stroke-miterlimit:4;stroke-dasharray:none;stroke-opacity:1"
           d="m 44.199,111.984 h -3.5" /></g><path
         id="path178"
         style="fill:#000000;fill-opacity:1;fill-rule:nonzero;stroke:none"
         d="m 23.215,135.547 h 3.441 v -0.828 h -4.625 v 0.828 c 0.371,0.387 0.883,0.906 1.528,1.558 0.648,0.653 1.054,1.075 1.218,1.266 0.317,0.356 0.535,0.652 0.661,0.899 0.128,0.246 0.191,0.488 0.191,0.726 0,0.387 -0.137,0.703 -0.41,0.945 -0.27,0.247 -0.625,0.368 -1.063,0.368 -0.308,0 -0.633,-0.051 -0.976,-0.161 -0.344,-0.105 -0.711,-0.269 -1.102,-0.488 v 0.996 c 0.399,0.16 0.77,0.282 1.113,0.36 0.344,0.082 0.661,0.125 0.95,0.125 0.754,0 1.355,-0.192 1.804,-0.571 0.45,-0.375 0.672,-0.879 0.672,-1.511 0,-0.301 -0.055,-0.582 -0.168,-0.852 -0.109,-0.269 -0.316,-0.586 -0.613,-0.949 -0.078,-0.094 -0.34,-0.367 -0.774,-0.82 -0.437,-0.45 -1.05,-1.079 -1.847,-1.891 z" /><path
         id="path180"
         style="fill:#000000;fill-opacity:1;fill-rule:nonzero;stroke:none"
         d="m 28.727,135.957 h 1.031 v -1.238 h -1.031 z" /><path
         id="path182"
         style="fill:#000000;fill-opacity:1;fill-rule:nonzero;stroke:none"
         d="m 34.016,141.359 c -0.508,0 -0.887,-0.25 -1.145,-0.75 -0.254,-0.5 -0.383,-1.25 -0.383,-2.254 0,-1 0.129,-1.75 0.383,-2.25 0.258,-0.5 0.637,-0.75 1.145,-0.75 0.511,0 0.894,0.25 1.152,0.75 0.254,0.5 0.383,1.25 0.383,2.25 0,1.004 -0.129,1.754 -0.383,2.254 -0.258,0.5 -0.641,0.75 -1.152,0.75 z m 0,0.782 c 0.816,0 1.441,-0.325 1.875,-0.973 0.429,-0.645 0.644,-1.582 0.644,-2.813 0,-1.226 -0.215,-2.164 -0.644,-2.812 -0.434,-0.645 -1.059,-0.969 -1.875,-0.969 -0.817,0 -1.442,0.324 -1.871,0.969 -0.43,0.648 -0.649,1.586 -0.649,2.812 0,1.231 0.219,2.168 0.649,2.813 0.429,0.648 1.054,0.973 1.871,0.973 z" /><g
         transform="matrix(1,0,0,-1,0,250.5)"
         id="g184"><path
           id="path186"
           style="fill:none;stroke:#000000;stroke-width:0.80000001;stroke-linecap:butt;stroke-linejoin:round;stroke-miterlimit:4;stroke-dasharray:none;stroke-opacity:1"
           d="m 44.199,86.902 h -3.5" /></g><path
         id="path188"
         style="fill:#000000;fill-opacity:1;fill-rule:nonzero;stroke:none"
         d="m 23.215,160.625 h 3.441 v -0.828 h -4.625 v 0.828 c 0.371,0.391 0.883,0.91 1.528,1.563 0.648,0.652 1.054,1.074 1.218,1.261 0.317,0.356 0.535,0.656 0.661,0.903 0.128,0.242 0.191,0.484 0.191,0.722 0,0.387 -0.137,0.703 -0.41,0.949 -0.27,0.243 -0.625,0.368 -1.063,0.368 -0.308,0 -0.633,-0.055 -0.976,-0.164 -0.344,-0.106 -0.711,-0.27 -1.102,-0.489 v 0.996 c 0.399,0.161 0.77,0.282 1.113,0.364 0.344,0.082 0.661,0.121 0.95,0.121 0.754,0 1.355,-0.188 1.804,-0.567 0.45,-0.379 0.672,-0.882 0.672,-1.511 0,-0.301 -0.055,-0.586 -0.168,-0.856 -0.109,-0.265 -0.316,-0.582 -0.613,-0.949 -0.078,-0.094 -0.34,-0.367 -0.774,-0.816 -0.437,-0.454 -1.05,-1.082 -1.847,-1.895 z" /><path
         id="path190"
         style="fill:#000000;fill-opacity:1;fill-rule:nonzero;stroke:none"
         d="m 28.727,161.039 h 1.031 v -1.242 h -1.031 z" /><path
         id="path192"
         style="fill:#000000;fill-opacity:1;fill-rule:nonzero;stroke:none"
         d="m 31.918,167.086 h 3.871 v -0.828 H 32.82 v -1.789 c 0.145,0.051 0.285,0.086 0.43,0.109 0.145,0.024 0.285,0.039 0.43,0.039 0.812,0 1.457,-0.226 1.933,-0.672 0.477,-0.445 0.715,-1.047 0.715,-1.808 0,-0.785 -0.246,-1.395 -0.734,-1.832 -0.489,-0.434 -1.176,-0.649 -2.067,-0.649 -0.304,0 -0.617,0.024 -0.933,0.078 -0.317,0.051 -0.645,0.129 -0.985,0.235 v 0.992 c 0.293,-0.16 0.598,-0.281 0.911,-0.359 0.312,-0.079 0.64,-0.118 0.988,-0.118 0.562,0 1.012,0.149 1.34,0.446 0.328,0.297 0.492,0.699 0.492,1.207 0,0.508 -0.164,0.906 -0.492,1.203 -0.328,0.297 -0.778,0.445 -1.34,0.445 -0.262,0 -0.528,-0.027 -0.789,-0.086 -0.262,-0.058 -0.528,-0.152 -0.801,-0.273 z" /><g
         transform="matrix(1,0,0,-1,0,250.5)"
         id="g194"><path
           id="path196"
           style="fill:none;stroke:#000000;stroke-width:0.80000001;stroke-linecap:butt;stroke-linejoin:round;stroke-miterlimit:4;stroke-dasharray:none;stroke-opacity:1"
           d="m 44.199,61.824 h -3.5" /></g><path
         id="path198"
         style="fill:#000000;fill-opacity:1;fill-rule:nonzero;stroke:none"
         d="m 25.355,188.809 c 0.473,-0.102 0.84,-0.313 1.106,-0.633 0.266,-0.321 0.398,-0.711 0.398,-1.18 0,-0.719 -0.25,-1.277 -0.742,-1.672 -0.496,-0.394 -1.199,-0.59 -2.109,-0.59 -0.309,0 -0.621,0.032 -0.946,0.09 -0.324,0.063 -0.66,0.153 -1.003,0.274 v 0.949 c 0.273,-0.16 0.574,-0.277 0.898,-0.359 0.324,-0.083 0.664,-0.122 1.02,-0.122 0.621,0 1.089,0.122 1.414,0.364 0.324,0.246 0.484,0.597 0.484,1.066 0,0.43 -0.148,0.766 -0.449,1.008 -0.301,0.242 -0.719,0.363 -1.258,0.363 H 23.32 v 0.809 h 0.887 c 0.484,0 0.855,0.097 1.113,0.293 0.258,0.191 0.387,0.472 0.387,0.836 0,0.375 -0.133,0.66 -0.398,0.863 -0.266,0.199 -0.645,0.301 -1.141,0.301 -0.27,0 -0.559,-0.031 -0.871,-0.09 -0.309,-0.059 -0.649,-0.149 -1.02,-0.274 v 0.879 c 0.375,0.106 0.727,0.184 1.055,0.235 0.328,0.054 0.633,0.078 0.926,0.078 0.746,0 1.34,-0.168 1.773,-0.512 0.438,-0.336 0.657,-0.797 0.657,-1.375 0,-0.406 -0.118,-0.746 -0.348,-1.023 -0.231,-0.282 -0.559,-0.473 -0.985,-0.578 z" /><path
         id="path200"
         style="fill:#000000;fill-opacity:1;fill-rule:nonzero;stroke:none"
         d="m 28.727,186.117 h 1.031 v -1.242 h -1.031 z" /><path
         id="path202"
         style="fill:#000000;fill-opacity:1;fill-rule:nonzero;stroke:none"
         d="m 34.016,191.516 c -0.508,0 -0.887,-0.25 -1.145,-0.75 -0.254,-0.496 -0.383,-1.25 -0.383,-2.254 0,-0.996 0.129,-1.746 0.383,-2.246 0.258,-0.5 0.637,-0.75 1.145,-0.75 0.511,0 0.894,0.25 1.152,0.75 0.254,0.5 0.383,1.25 0.383,2.246 0,1.004 -0.129,1.758 -0.383,2.254 -0.258,0.5 -0.641,0.75 -1.152,0.75 z m 0,0.781 c 0.816,0 1.441,-0.324 1.875,-0.969 0.429,-0.644 0.644,-1.586 0.644,-2.816 0,-1.227 -0.215,-2.164 -0.644,-2.809 -0.434,-0.644 -1.059,-0.969 -1.875,-0.969 -0.817,0 -1.442,0.325 -1.871,0.969 -0.43,0.645 -0.649,1.582 -0.649,2.809 0,1.23 0.219,2.172 0.649,2.816 0.429,0.645 1.054,0.969 1.871,0.969 z" /><g
         transform="matrix(1,0,0,-1,0,250.5)"
         id="g204"><path
           id="path206"
           style="fill:none;stroke:#000000;stroke-width:0.80000001;stroke-linecap:butt;stroke-linejoin:round;stroke-miterlimit:4;stroke-dasharray:none;stroke-opacity:1"
           d="m 44.199,36.746 h -3.5" /></g><path
         id="path208"
         style="fill:#000000;fill-opacity:1;fill-rule:nonzero;stroke:none"
         d="m 25.355,213.887 c 0.473,-0.102 0.84,-0.313 1.106,-0.633 0.266,-0.316 0.398,-0.711 0.398,-1.18 0,-0.719 -0.25,-1.277 -0.742,-1.672 -0.496,-0.39 -1.199,-0.59 -2.109,-0.59 -0.309,0 -0.621,0.032 -0.946,0.09 -0.324,0.063 -0.66,0.153 -1.003,0.274 v 0.953 c 0.273,-0.16 0.574,-0.281 0.898,-0.363 0.324,-0.082 0.664,-0.121 1.02,-0.121 0.621,0 1.089,0.121 1.414,0.367 0.324,0.242 0.484,0.597 0.484,1.062 0,0.43 -0.148,0.766 -0.449,1.008 -0.301,0.242 -0.719,0.363 -1.258,0.363 H 23.32 v 0.813 h 0.887 c 0.484,0 0.855,0.097 1.113,0.289 0.258,0.195 0.387,0.473 0.387,0.84 0,0.371 -0.133,0.66 -0.398,0.859 -0.266,0.199 -0.645,0.301 -1.141,0.301 -0.27,0 -0.559,-0.027 -0.871,-0.09 -0.309,-0.059 -0.649,-0.148 -1.02,-0.269 v 0.878 c 0.375,0.102 0.727,0.18 1.055,0.235 0.328,0.051 0.633,0.078 0.926,0.078 0.746,0 1.34,-0.172 1.773,-0.512 0.438,-0.34 0.657,-0.801 0.657,-1.379 0,-0.406 -0.118,-0.746 -0.348,-1.023 -0.231,-0.277 -0.559,-0.473 -0.985,-0.578 z" /><path
         id="path210"
         style="fill:#000000;fill-opacity:1;fill-rule:nonzero;stroke:none"
         d="m 28.727,211.195 h 1.031 v -1.238 h -1.031 z" /><path
         id="path212"
         style="fill:#000000;fill-opacity:1;fill-rule:nonzero;stroke:none"
         d="m 31.918,217.246 h 3.871 v -0.832 H 32.82 v -1.785 c 0.145,0.047 0.285,0.086 0.43,0.109 0.145,0.024 0.285,0.035 0.43,0.035 0.812,0 1.457,-0.222 1.933,-0.668 0.477,-0.445 0.715,-1.05 0.715,-1.812 0,-0.781 -0.246,-1.395 -0.734,-1.828 -0.489,-0.434 -1.176,-0.653 -2.067,-0.653 -0.304,0 -0.617,0.028 -0.933,0.079 -0.317,0.05 -0.645,0.129 -0.985,0.234 v 0.992 c 0.293,-0.16 0.598,-0.277 0.911,-0.355 0.312,-0.078 0.64,-0.117 0.988,-0.117 0.562,0 1.012,0.148 1.34,0.445 0.328,0.293 0.492,0.695 0.492,1.203 0,0.508 -0.164,0.91 -0.492,1.207 -0.328,0.297 -0.778,0.445 -1.34,0.445 -0.262,0 -0.528,-0.031 -0.789,-0.09 -0.262,-0.058 -0.528,-0.148 -0.801,-0.273 z" /><g
         transform="matrix(1,0,0,-1,0,250.5)"
         id="g214"><path
           id="path216"
           style="fill:none;stroke:#000000;stroke-width:0.80000001;stroke-linecap:butt;stroke-linejoin:round;stroke-miterlimit:4;stroke-dasharray:none;stroke-opacity:1"
           d="m 44.199,11.668 h -3.5" /></g><path
         id="path218"
         style="fill:#000000;fill-opacity:1;fill-rule:nonzero;stroke:none"
         d="m 25.078,241.465 -2.492,-3.891 h 2.492 z m -0.262,0.859 h 1.243 v -4.75 h 1.039 v -0.82 h -1.039 v -1.719 h -0.981 v 1.719 h -3.293 v 0.949 z" /><path
         id="path220"
         style="fill:#000000;fill-opacity:1;fill-rule:nonzero;stroke:none"
         d="m 28.727,236.273 h 1.031 v -1.238 h -1.031 z" /><path
         id="path222"
         style="fill:#000000;fill-opacity:1;fill-rule:nonzero;stroke:none"
         d="m 34.016,241.676 c -0.508,0 -0.887,-0.25 -1.145,-0.75 -0.254,-0.5 -0.383,-1.25 -0.383,-2.254 0,-1 0.129,-1.75 0.383,-2.25 0.258,-0.5 0.637,-0.75 1.145,-0.75 0.511,0 0.894,0.25 1.152,0.75 0.254,0.5 0.383,1.25 0.383,2.25 0,1.004 -0.129,1.754 -0.383,2.254 -0.258,0.5 -0.641,0.75 -1.152,0.75 z m 0,0.781 c 0.816,0 1.441,-0.324 1.875,-0.973 0.429,-0.644 0.644,-1.582 0.644,-2.812 0,-1.227 -0.215,-2.164 -0.644,-2.813 -0.434,-0.644 -1.059,-0.968 -1.875,-0.968 -0.817,0 -1.442,0.324 -1.871,0.968 -0.43,0.649 -0.649,1.586 -0.649,2.813 0,1.23 0.219,2.168 0.649,2.812 0.429,0.649 1.054,0.973 1.871,0.973 z" /><path
         id="path224"
         style="fill:#000000;fill-opacity:1;fill-rule:nonzero;stroke:none"
         d="m 14.398,102.516 h 2.899 v -0.903 H 9.75 v 0.903 h 0.828 c -0.324,0.187 -0.566,0.425 -0.723,0.714 -0.16,0.29 -0.238,0.633 -0.238,1.032 0,0.668 0.262,1.207 0.789,1.621 0.528,0.414 1.223,0.621 2.082,0.621 0.86,0 1.551,-0.207 2.082,-0.621 0.528,-0.414 0.789,-0.953 0.789,-1.621 0,-0.399 -0.078,-0.742 -0.238,-1.032 -0.156,-0.289 -0.398,-0.527 -0.723,-0.714 z m -1.91,3.058 c -0.66,0 -1.179,-0.136 -1.554,-0.41 -0.375,-0.269 -0.567,-0.644 -0.567,-1.121 0,-0.473 0.192,-0.848 0.567,-1.121 0.375,-0.27 0.894,-0.406 1.554,-0.406 0.66,0 1.18,0.136 1.555,0.406 0.375,0.273 0.562,0.648 0.562,1.121 0,0.477 -0.187,0.852 -0.562,1.121 -0.375,0.274 -0.895,0.41 -1.555,0.41 z" /><path
         id="path226"
         style="fill:#000000;fill-opacity:1;fill-rule:nonzero;stroke:none"
         d="m 12.469,110.48 c 0,-0.726 0.082,-1.23 0.25,-1.511 0.164,-0.278 0.449,-0.418 0.847,-0.418 0.321,0 0.575,0.105 0.762,0.316 0.184,0.207 0.277,0.496 0.277,0.856 0,0.5 -0.175,0.898 -0.527,1.199 -0.355,0.301 -0.824,0.453 -1.41,0.453 h -0.199 z m -0.371,1.793 h 3.121 v -0.898 h -0.832 c 0.332,-0.207 0.578,-0.461 0.734,-0.77 0.16,-0.304 0.238,-0.679 0.238,-1.121 0,-0.562 -0.156,-1.007 -0.472,-1.336 -0.313,-0.332 -0.735,-0.496 -1.262,-0.496 -0.613,0 -1.078,0.203 -1.391,0.618 -0.312,0.41 -0.468,1.027 -0.468,1.843 v 1.262 h -0.09 c -0.414,0 -0.735,-0.137 -0.957,-0.41 -0.227,-0.27 -0.34,-0.653 -0.34,-1.145 0,-0.312 0.035,-0.617 0.113,-0.914 0.074,-0.297 0.188,-0.582 0.336,-0.851 H 9.996 c -0.125,0.328 -0.223,0.644 -0.285,0.953 -0.063,0.312 -0.094,0.613 -0.094,0.906 0,0.789 0.207,1.383 0.617,1.774 0.407,0.39 1.028,0.585 1.864,0.585 z" /><path
         id="path228"
         style="fill:#000000;fill-opacity:1;fill-rule:nonzero;stroke:none"
         d="m 9.75,114.121 v 0.899 h 5.469 v -0.899 z m -2.133,0 v 0.899 h 1.141 v -0.899 z" /><path
         id="path230"
         style="fill:#000000;fill-opacity:1;fill-rule:nonzero;stroke:none"
         d="m 10.586,120.07 c -0.059,-0.101 -0.098,-0.211 -0.125,-0.332 -0.031,-0.117 -0.043,-0.25 -0.043,-0.39 0,-0.508 0.164,-0.899 0.496,-1.172 0.328,-0.27 0.805,-0.406 1.422,-0.406 h 2.883 v -0.903 H 9.75 v 0.903 h 0.848 c -0.332,0.187 -0.578,0.433 -0.739,0.738 -0.16,0.301 -0.242,0.668 -0.242,1.101 0,0.063 0.004,0.133 0.012,0.207 0.008,0.075 0.019,0.157 0.035,0.246 z" /><path
         id="path232"
         style="fill:#000000;fill-opacity:1;fill-rule:nonzero;stroke:none"
         d="m 9.957,128.125 h 0.84 c -0.141,-0.254 -0.246,-0.508 -0.313,-0.762 -0.07,-0.258 -0.105,-0.515 -0.105,-0.773 0,-0.586 0.183,-1.039 0.555,-1.36 0.367,-0.324 0.886,-0.484 1.554,-0.484 0.668,0 1.188,0.16 1.555,0.484 0.371,0.321 0.555,0.774 0.555,1.36 0,0.258 -0.036,0.515 -0.106,0.773 -0.07,0.254 -0.176,0.508 -0.316,0.762 h 0.832 c 0.117,-0.25 0.203,-0.512 0.262,-0.777 0.058,-0.27 0.089,-0.555 0.089,-0.86 0,-0.82 -0.257,-1.476 -0.777,-1.961 -0.516,-0.484 -1.215,-0.726 -2.094,-0.726 -0.89,0 -1.593,0.242 -2.105,0.734 -0.512,0.488 -0.766,1.16 -0.766,2.016 0,0.273 0.028,0.543 0.086,0.808 0.055,0.262 0.141,0.52 0.254,0.766 z" /><path
         id="path234"
         style="fill:#000000;fill-opacity:1;fill-rule:nonzero;stroke:none"
         d="m 10.379,131.809 c 0,-0.485 0.187,-0.864 0.562,-1.145 0.375,-0.281 0.891,-0.418 1.547,-0.418 0.653,0 1.168,0.137 1.543,0.414 0.379,0.281 0.567,0.664 0.567,1.149 0,0.476 -0.188,0.855 -0.567,1.136 -0.379,0.278 -0.894,0.418 -1.543,0.418 -0.648,0 -1.164,-0.14 -1.543,-0.418 -0.379,-0.281 -0.566,-0.66 -0.566,-1.136 z m -0.762,0 c 0,0.781 0.254,1.394 0.762,1.839 0.508,0.446 1.211,0.668 2.109,0.668 0.895,0 1.598,-0.222 2.106,-0.668 0.511,-0.445 0.765,-1.058 0.765,-1.839 0,-0.786 -0.254,-1.403 -0.765,-1.844 -0.508,-0.445 -1.211,-0.668 -2.106,-0.668 -0.898,0 -1.601,0.223 -2.109,0.668 -0.508,0.441 -0.762,1.058 -0.762,1.844 z" /><path
         id="path236"
         style="fill:#000000;fill-opacity:1;fill-rule:nonzero;stroke:none"
         d="m 10.586,138.977 c -0.059,-0.102 -0.098,-0.211 -0.125,-0.332 -0.031,-0.118 -0.043,-0.25 -0.043,-0.391 0,-0.508 0.164,-0.899 0.496,-1.172 0.328,-0.27 0.805,-0.406 1.422,-0.406 h 2.883 v -0.903 H 9.75 v 0.903 h 0.848 c -0.332,0.187 -0.578,0.433 -0.739,0.738 -0.16,0.301 -0.242,0.668 -0.242,1.102 0,0.062 0.004,0.132 0.012,0.207 0.008,0.074 0.019,0.156 0.035,0.246 z" /><path
         id="path238"
         style="fill:#000000;fill-opacity:1;fill-rule:nonzero;stroke:none"
         d="m 10.586,143.086 c -0.059,-0.102 -0.098,-0.211 -0.125,-0.332 -0.031,-0.117 -0.043,-0.25 -0.043,-0.391 0,-0.508 0.164,-0.898 0.496,-1.172 0.328,-0.269 0.805,-0.406 1.422,-0.406 h 2.883 v -0.902 H 9.75 v 0.902 h 0.848 c -0.332,0.188 -0.578,0.434 -0.739,0.738 -0.16,0.301 -0.242,0.672 -0.242,1.102 0,0.063 0.004,0.133 0.012,0.207 0.008,0.074 0.019,0.156 0.035,0.246 z" /><path
         id="path240"
         style="fill:#000000;fill-opacity:1;fill-rule:nonzero;stroke:none"
         d="m 12.258,148.703 h 0.437 v -4.133 c 0.621,0.039 1.09,0.227 1.414,0.559 0.325,0.336 0.489,0.801 0.489,1.394 0,0.344 -0.043,0.68 -0.129,1.004 -0.082,0.325 -0.211,0.645 -0.379,0.965 h 0.848 c 0.136,-0.32 0.242,-0.652 0.312,-0.992 0.074,-0.336 0.109,-0.68 0.109,-1.027 0,-0.875 -0.254,-1.567 -0.761,-2.075 -0.508,-0.511 -1.196,-0.765 -2.063,-0.765 -0.894,0 -1.605,0.242 -2.129,0.726 -0.527,0.485 -0.789,1.133 -0.789,1.957 0,0.735 0.238,1.317 0.711,1.743 0.473,0.429 1.117,0.644 1.93,0.644 z m -0.266,-0.898 c -0.488,-0.008 -0.879,-0.145 -1.172,-0.414 -0.297,-0.27 -0.441,-0.625 -0.441,-1.067 0,-0.5 0.141,-0.902 0.426,-1.203 0.281,-0.301 0.679,-0.473 1.195,-0.519 z" /><path
         id="path242"
         style="fill:#000000;fill-opacity:1;fill-rule:nonzero;stroke:none"
         d="m 7.617,151.074 h 7.602 v -0.898 H 7.617 Z" /><path
         id="path244"
         style="fill:#000000;fill-opacity:1;fill-rule:nonzero;stroke:none"
         d="m 12.469,155.441 c 0,-0.726 0.082,-1.23 0.25,-1.511 0.164,-0.278 0.449,-0.418 0.847,-0.418 0.321,0 0.575,0.105 0.762,0.316 0.184,0.211 0.277,0.496 0.277,0.856 0,0.5 -0.175,0.898 -0.527,1.199 -0.355,0.301 -0.824,0.453 -1.41,0.453 h -0.199 z m -0.371,1.793 h 3.121 v -0.898 h -0.832 c 0.332,-0.207 0.578,-0.461 0.734,-0.77 0.16,-0.304 0.238,-0.679 0.238,-1.121 0,-0.562 -0.156,-1.007 -0.472,-1.336 -0.313,-0.332 -0.735,-0.496 -1.262,-0.496 -0.613,0 -1.078,0.207 -1.391,0.617 -0.312,0.411 -0.468,1.028 -0.468,1.844 v 1.262 h -0.09 c -0.414,0 -0.735,-0.137 -0.957,-0.41 -0.227,-0.27 -0.34,-0.653 -0.34,-1.145 0,-0.312 0.035,-0.617 0.113,-0.914 0.074,-0.297 0.188,-0.578 0.336,-0.851 H 9.996 c -0.125,0.328 -0.223,0.644 -0.285,0.953 -0.063,0.312 -0.094,0.613 -0.094,0.906 0,0.789 0.207,1.383 0.617,1.773 0.407,0.391 1.028,0.586 1.864,0.586 z" /><path
         id="path246"
         style="fill:#000000;fill-opacity:1;fill-rule:nonzero;stroke:none"
         d="M 8.195,159.973 H 9.75 v 1.847 h 0.695 v -1.847 h 2.969 c 0.449,0 0.734,0.058 0.859,0.183 0.129,0.121 0.192,0.367 0.192,0.742 v 0.922 h 0.754 v -0.922 c 0,-0.691 -0.129,-1.171 -0.391,-1.433 -0.258,-0.266 -0.73,-0.395 -1.414,-0.395 h -2.969 v -0.66 H 9.75 v 0.66 H 8.195 Z" /><path
         id="path248"
         style="fill:#000000;fill-opacity:1;fill-rule:nonzero;stroke:none"
         d="m 9.75,163.004 v 0.898 h 5.469 v -0.898 z m -2.133,0 v 0.898 h 1.141 v -0.898 z" /><path
         id="path250"
         style="fill:#000000;fill-opacity:1;fill-rule:nonzero;stroke:none"
         d="m 10.379,167.902 c 0,-0.484 0.187,-0.863 0.562,-1.144 0.375,-0.281 0.891,-0.418 1.547,-0.418 0.653,0 1.168,0.137 1.543,0.414 0.379,0.281 0.567,0.664 0.567,1.148 0,0.477 -0.188,0.856 -0.567,1.137 -0.379,0.281 -0.894,0.418 -1.543,0.418 -0.648,0 -1.164,-0.137 -1.543,-0.418 -0.379,-0.281 -0.566,-0.66 -0.566,-1.137 z m -0.762,0 c 0,0.782 0.254,1.395 0.762,1.84 0.508,0.446 1.211,0.668 2.109,0.668 0.895,0 1.598,-0.222 2.106,-0.668 0.511,-0.445 0.765,-1.058 0.765,-1.84 0,-0.785 -0.254,-1.402 -0.765,-1.843 -0.508,-0.446 -1.211,-0.668 -2.106,-0.668 -0.898,0 -1.601,0.222 -2.109,0.668 -0.508,0.441 -0.762,1.058 -0.762,1.843 z" /><path
         id="path252"
         style="fill:#000000;fill-opacity:1;fill-rule:nonzero;stroke:none"
         d="m 11.914,176.445 h 3.305 v -0.898 h -3.274 c -0.519,0 -0.906,-0.098 -1.16,-0.301 -0.258,-0.203 -0.387,-0.504 -0.387,-0.91 0,-0.484 0.157,-0.867 0.465,-1.148 0.309,-0.278 0.731,-0.418 1.262,-0.418 h 3.094 v -0.903 H 9.75 v 0.903 h 0.848 c -0.328,0.214 -0.575,0.468 -0.739,0.757 -0.16,0.293 -0.242,0.629 -0.242,1.012 0,0.625 0.195,1.102 0.582,1.422 0.391,0.324 0.961,0.484 1.715,0.484 z" /></g><g
       id="g254"><g
         clip-path="url(#clipPath260)"
         id="g256"><g
           transform="translate(0,-0.5)"
           id="g262"><g
             id="g264"><g
               clip-path="url(#clipPath270)"
               id="g266"><g
                 id="g272"><g
                   transform="matrix(1,0,0,-1,0,251)"
                   id="g274"><path
                     id="path276"
                     style="fill:none;stroke:#e5ae38;stroke-width:2;stroke-linecap:square;stroke-linejoin:round;stroke-miterlimit:4;stroke-dasharray:none;stroke-opacity:1"
                     d="m 44.402,212.301 h 19.957 l 0.203,-54.703 1.411,6.191 1.41,5.246 1.211,3.754 1.211,3.086 1.207,2.434 1.008,1.519 1.007,1.113 1.008,0.743 0.809,0.351 0.804,0.153 0.809,-0.04 1.008,-0.293 1.008,-0.539 1.41,-1.027 1.41,-1.312 1.613,-1.832 1.614,-2.168 1.41,-1.891 1.613,-1.77 2.219,-2.046 1.613,-1.332 1.211,0.964 1.207,0.743 1.211,0.515 1.207,0.313 1.414,0.117 1.41,-0.102 1.613,-0.328 2.219,-0.703 6.449,-2.234 2.219,-0.453 2.219,-0.2 3.625,-0.07 3.43,-0.098 3.425,-0.367 8.067,-0.945 5.039,-0.281 11.492,-0.575 8.867,-0.394 23.188,-0.656 26.207,-0.438 33.062,-0.297 5.844,-0.035" /></g></g></g></g></g></g></g><g
       id="g278"><g
         transform="matrix(1,0,0,-1,0,250.5)"
         id="g280"><path
           id="path282"
           style="fill:none;stroke:#000000;stroke-width:0.80000001;stroke-linecap:square;stroke-linejoin:miter;stroke-miterlimit:4;stroke-dasharray:none;stroke-opacity:1"
           d="M 44.199,212.301 V 10.699" /></g><g
         transform="matrix(1,0,0,-1,0,250.5)"
         id="g284"><path
           id="path286"
           style="fill:none;stroke:#000000;stroke-width:0.80000001;stroke-linecap:square;stroke-linejoin:miter;stroke-miterlimit:4;stroke-dasharray:none;stroke-opacity:1"
           d="M 44.199,212.301 H 245.801" /></g><g
         id="g288"><g
           id="g290" /><g
           mask="url(#mask296)"
           id="g304"><g
             id="g306" /><g
             id="g330"><g
               id="g328"
               clip-path="url(#clipPath310)"><g
                 id="g326"
                 transform="translate(0,-0.5)"><g
                   id="g324"><g
                     id="g322"
                     clip-path="url(#clipPath314)"><g
                       id="g320"><g
                         id="g318"
                         transform="matrix(1,0,0,-1,0,251)"><path
                           id="path316"
                           style="fill:#ffffff;fill-opacity:1;fill-rule:nonzero;stroke:#000000;stroke-width:1;stroke-linecap:butt;stroke-linejoin:miter;stroke-miterlimit:4;stroke-dasharray:none;stroke-opacity:1"
                           d="m 120.863,62.734 h 117.938 c 1.332,0 2,-0.668 2,-2 V 17.699 c 0,-1.332 -0.668,-2 -2,-2 H 120.863 c -1.332,0 -2,0.668 -2,2 v 43.035 c 0,1.332 0.668,2 2,2 z" /></g></g></g></g></g></g></g></g></g><g
         transform="matrix(1,0,0,-1,0,250.5)"
         id="g332"><path
           id="path334"
           style="fill:none;stroke:#30a2da;stroke-width:2;stroke-linecap:butt;stroke-linejoin:round;stroke-miterlimit:4;stroke-dasharray:2, 3.3;stroke-dashoffset:0;stroke-opacity:1"
           d="m 122.863,23.797 h 20" /></g><path
         id="path336"
         style="fill:#000000;fill-opacity:1;fill-rule:nonzero;stroke:none"
         d="m 152.676,224.023 v -2.902 h -0.903 v 7.551 h 0.903 v -0.832 c 0.187,0.324 0.426,0.566 0.715,0.722 0.289,0.161 0.632,0.239 1.031,0.239 0.668,0 1.207,-0.262 1.621,-0.789 0.414,-0.528 0.621,-1.223 0.621,-2.082 0,-0.86 -0.207,-1.551 -0.621,-2.078 -0.414,-0.528 -0.953,-0.793 -1.621,-0.793 -0.399,0 -0.742,0.078 -1.031,0.238 -0.289,0.16 -0.528,0.398 -0.715,0.726 z m 3.058,1.907 c 0,0.66 -0.136,1.179 -0.41,1.554 -0.269,0.379 -0.644,0.567 -1.121,0.567 -0.473,0 -0.848,-0.188 -1.121,-0.567 -0.27,-0.375 -0.406,-0.894 -0.406,-1.554 0,-0.66 0.136,-1.176 0.406,-1.555 0.273,-0.375 0.648,-0.563 1.121,-0.563 0.477,0 0.852,0.188 1.121,0.563 0.274,0.379 0.41,0.895 0.41,1.555 z" /><path
         id="path338"
         style="fill:#000000;fill-opacity:1;fill-rule:nonzero;stroke:none"
         d="m 160.641,225.949 c -0.727,0 -1.231,-0.082 -1.512,-0.246 -0.277,-0.168 -0.418,-0.449 -0.418,-0.851 0,-0.321 0.105,-0.571 0.316,-0.758 0.207,-0.188 0.496,-0.282 0.856,-0.282 0.5,0 0.898,0.176 1.199,0.532 0.301,0.351 0.453,0.82 0.453,1.406 v 0.199 z m 1.793,0.371 v -3.117 h -0.899 v 0.828 c -0.207,-0.332 -0.461,-0.574 -0.769,-0.734 -0.305,-0.16 -0.68,-0.238 -1.121,-0.238 -0.563,0 -1.008,0.156 -1.336,0.472 -0.332,0.317 -0.497,0.735 -0.497,1.262 0,0.617 0.204,1.078 0.618,1.391 0.41,0.312 1.027,0.468 1.843,0.468 h 1.262 v 0.09 c 0,0.414 -0.137,0.735 -0.41,0.961 -0.27,0.223 -0.652,0.336 -1.145,0.336 -0.312,0 -0.617,-0.035 -0.914,-0.109 -0.296,-0.078 -0.582,-0.188 -0.851,-0.34 v 0.832 c 0.328,0.129 0.644,0.223 0.953,0.285 0.312,0.063 0.613,0.094 0.906,0.094 0.789,0 1.383,-0.203 1.774,-0.613 0.39,-0.411 0.586,-1.032 0.586,-1.868 z" /><path
         id="path340"
         style="fill:#000000;fill-opacity:1;fill-rule:nonzero;stroke:none"
         d="m 167.449,227.832 c -0.101,0.059 -0.211,0.102 -0.328,0.129 -0.117,0.027 -0.25,0.039 -0.391,0.039 -0.511,0 -0.898,-0.164 -1.171,-0.492 -0.274,-0.332 -0.407,-0.805 -0.407,-1.426 v -2.879 h -0.906 v 5.469 h 0.906 v -0.852 c 0.188,0.332 0.434,0.578 0.735,0.739 0.304,0.164 0.672,0.242 1.105,0.242 0.063,0 0.129,-0.004 0.207,-0.012 0.074,-0.008 0.156,-0.019 0.246,-0.035 z" /><path
         id="path342"
         style="fill:#000000;fill-opacity:1;fill-rule:nonzero;stroke:none"
         d="m 169.281,230.223 v -1.551 h 1.852 v -0.699 h -1.852 v -2.969 c 0,-0.445 0.063,-0.734 0.184,-0.859 0.121,-0.129 0.371,-0.192 0.746,-0.192 h 0.922 v -0.75 h -0.922 c -0.695,0 -1.172,0.129 -1.438,0.387 -0.261,0.258 -0.394,0.73 -0.394,1.414 v 2.969 h -0.66 v 0.699 h 0.66 v 1.551 z" /><path
         id="path344"
         style="fill:#000000;fill-opacity:1;fill-rule:nonzero;stroke:none"
         d="m 172.312,228.672 h 0.899 v -5.469 h -0.899 z m 0,2.129 h 0.899 v -1.141 h -0.899 z" /><path
         id="path346"
         style="fill:#000000;fill-opacity:1;fill-rule:nonzero;stroke:none"
         d="m 179.027,228.461 v -0.84 c -0.254,0.141 -0.507,0.246 -0.761,0.317 -0.258,0.066 -0.516,0.101 -0.774,0.101 -0.586,0 -1.039,-0.184 -1.359,-0.555 -0.324,-0.367 -0.485,-0.886 -0.485,-1.554 0,-0.668 0.161,-1.184 0.485,-1.555 0.32,-0.367 0.773,-0.555 1.359,-0.555 0.258,0 0.516,0.035 0.774,0.106 0.254,0.07 0.507,0.176 0.761,0.316 v -0.832 c -0.25,-0.117 -0.511,-0.203 -0.777,-0.262 -0.27,-0.058 -0.555,-0.089 -0.859,-0.089 -0.821,0 -1.477,0.257 -1.961,0.777 -0.485,0.519 -0.727,1.215 -0.727,2.094 0,0.894 0.242,1.593 0.735,2.105 0.488,0.512 1.16,0.766 2.015,0.766 0.274,0 0.543,-0.028 0.809,-0.086 0.261,-0.055 0.519,-0.141 0.765,-0.254 z" /><path
         id="path348"
         style="fill:#000000;fill-opacity:1;fill-rule:nonzero;stroke:none"
         d="m 180.59,230.801 h 0.898 v -7.598 h -0.898 z" /><path
         id="path350"
         style="fill:#000000;fill-opacity:1;fill-rule:nonzero;stroke:none"
         d="m 188.047,226.16 v -0.437 h -4.133 c 0.043,-0.621 0.227,-1.09 0.563,-1.414 0.332,-0.325 0.796,-0.489 1.39,-0.489 0.348,0 0.68,0.043 1.004,0.129 0.324,0.082 0.649,0.211 0.965,0.379 v -0.848 c -0.32,-0.136 -0.652,-0.242 -0.992,-0.312 -0.336,-0.074 -0.68,-0.109 -1.028,-0.109 -0.875,0 -1.566,0.253 -2.074,0.761 -0.508,0.508 -0.765,1.196 -0.765,2.063 0,0.894 0.242,1.605 0.726,2.129 0.485,0.527 1.137,0.789 1.957,0.789 0.735,0 1.317,-0.235 1.746,-0.711 0.426,-0.473 0.641,-1.117 0.641,-1.93 z m -0.899,0.266 c -0.007,0.488 -0.144,0.883 -0.414,1.176 -0.265,0.293 -0.621,0.437 -1.066,0.437 -0.5,0 -0.902,-0.141 -1.203,-0.422 -0.301,-0.285 -0.473,-0.683 -0.52,-1.199 z" /><path
         id="path352"
         style="fill:#000000;fill-opacity:1;fill-rule:nonzero;stroke:none"
         d="m 189.066,226.34 h 2.633 v -0.801 h -2.633 z" /><path
         id="path354"
         style="fill:#000000;fill-opacity:1;fill-rule:nonzero;stroke:none"
         d="m 194,224.023 v -2.902 h -0.906 v 7.551 H 194 v -0.832 c 0.188,0.324 0.426,0.566 0.715,0.722 0.289,0.161 0.633,0.239 1.031,0.239 0.664,0 1.203,-0.262 1.621,-0.789 0.414,-0.528 0.621,-1.223 0.621,-2.082 0,-0.86 -0.207,-1.551 -0.621,-2.078 -0.418,-0.528 -0.957,-0.793 -1.621,-0.793 -0.398,0 -0.742,0.078 -1.031,0.238 -0.289,0.16 -0.527,0.398 -0.715,0.726 z m 3.055,1.907 c 0,0.66 -0.133,1.179 -0.407,1.554 -0.273,0.379 -0.644,0.567 -1.121,0.567 -0.476,0 -0.847,-0.188 -1.121,-0.567 -0.273,-0.375 -0.406,-0.894 -0.406,-1.554 0,-0.66 0.133,-1.176 0.406,-1.555 0.274,-0.375 0.645,-0.563 1.121,-0.563 0.477,0 0.848,0.188 1.121,0.563 0.274,0.379 0.407,0.895 0.407,1.555 z" /><path
         id="path356"
         style="fill:#000000;fill-opacity:1;fill-rule:nonzero;stroke:none"
         d="m 201.965,225.949 c -0.727,0 -1.231,-0.082 -1.512,-0.246 -0.281,-0.168 -0.418,-0.449 -0.418,-0.851 0,-0.321 0.102,-0.571 0.313,-0.758 0.211,-0.188 0.496,-0.282 0.859,-0.282 0.496,0 0.898,0.176 1.199,0.532 0.301,0.351 0.449,0.82 0.449,1.406 v 0.199 z m 1.789,0.371 v -3.117 h -0.899 v 0.828 c -0.203,-0.332 -0.46,-0.574 -0.765,-0.734 -0.305,-0.16 -0.68,-0.238 -1.125,-0.238 -0.559,0 -1.004,0.156 -1.336,0.472 -0.328,0.317 -0.492,0.735 -0.492,1.262 0,0.617 0.203,1.078 0.617,1.391 0.41,0.312 1.023,0.468 1.844,0.468 h 1.257 v 0.09 c 0,0.414 -0.132,0.735 -0.406,0.961 -0.273,0.223 -0.652,0.336 -1.144,0.336 -0.313,0 -0.617,-0.035 -0.914,-0.109 -0.297,-0.078 -0.582,-0.188 -0.856,-0.34 v 0.832 c 0.328,0.129 0.649,0.223 0.957,0.285 0.309,0.063 0.61,0.094 0.903,0.094 0.793,0 1.382,-0.203 1.773,-0.613 0.391,-0.411 0.586,-1.032 0.586,-1.868 z" /><path
         id="path358"
         style="fill:#000000;fill-opacity:1;fill-rule:nonzero;stroke:none"
         d="m 208.773,227.832 c -0.101,0.059 -0.211,0.102 -0.328,0.129 -0.121,0.027 -0.25,0.039 -0.394,0.039 -0.508,0 -0.899,-0.164 -1.168,-0.492 -0.274,-0.332 -0.41,-0.805 -0.41,-1.426 v -2.879 h -0.903 v 5.469 h 0.903 v -0.852 c 0.191,0.332 0.437,0.578 0.738,0.739 0.305,0.164 0.672,0.242 1.105,0.242 0.063,0 0.129,-0.004 0.204,-0.012 0.074,-0.008 0.16,-0.019 0.25,-0.035 z" /><path
         id="path360"
         style="fill:#000000;fill-opacity:1;fill-rule:nonzero;stroke:none"
         d="m 210.605,230.223 v -1.551 h 1.852 v -0.699 h -1.852 v -2.969 c 0,-0.445 0.063,-0.734 0.184,-0.859 0.121,-0.129 0.371,-0.192 0.746,-0.192 h 0.922 v -0.75 h -0.922 c -0.695,0 -1.176,0.129 -1.437,0.387 -0.262,0.258 -0.395,0.73 -0.395,1.414 v 2.969 h -0.66 v 0.699 h 0.66 v 1.551 z" /><path
         id="path362"
         style="fill:#000000;fill-opacity:1;fill-rule:nonzero;stroke:none"
         d="m 213.637,228.672 h 0.898 v -5.469 h -0.898 z m 0,2.129 h 0.898 v -1.141 h -0.898 z" /><path
         id="path364"
         style="fill:#000000;fill-opacity:1;fill-rule:nonzero;stroke:none"
         d="m 220.352,228.461 v -0.84 c -0.254,0.141 -0.508,0.246 -0.766,0.317 -0.254,0.066 -0.512,0.101 -0.774,0.101 -0.582,0 -1.035,-0.184 -1.359,-0.555 -0.32,-0.367 -0.48,-0.886 -0.48,-1.554 0,-0.668 0.16,-1.184 0.48,-1.555 0.324,-0.367 0.777,-0.555 1.359,-0.555 0.262,0 0.52,0.035 0.774,0.106 0.258,0.07 0.512,0.176 0.766,0.316 v -0.832 c -0.25,-0.117 -0.512,-0.203 -0.782,-0.262 -0.265,-0.058 -0.55,-0.089 -0.855,-0.089 -0.824,0 -1.477,0.257 -1.965,0.777 -0.484,0.519 -0.727,1.215 -0.727,2.094 0,0.894 0.247,1.593 0.735,2.105 0.492,0.512 1.164,0.766 2.015,0.766 0.278,0 0.547,-0.028 0.813,-0.086 0.262,-0.055 0.519,-0.141 0.766,-0.254 z" /><path
         id="path366"
         style="fill:#000000;fill-opacity:1;fill-rule:nonzero;stroke:none"
         d="m 221.914,230.801 h 0.898 v -7.598 h -0.898 z" /><path
         id="path368"
         style="fill:#000000;fill-opacity:1;fill-rule:nonzero;stroke:none"
         d="m 229.371,226.16 v -0.437 h -4.133 c 0.039,-0.621 0.227,-1.09 0.559,-1.414 0.336,-0.325 0.801,-0.489 1.394,-0.489 0.344,0 0.68,0.043 1.004,0.129 0.325,0.082 0.645,0.211 0.965,0.379 v -0.848 c -0.324,-0.136 -0.652,-0.242 -0.992,-0.312 -0.34,-0.074 -0.68,-0.109 -1.027,-0.109 -0.875,0 -1.567,0.253 -2.075,0.761 -0.511,0.508 -0.765,1.196 -0.765,2.063 0,0.894 0.242,1.605 0.726,2.129 0.481,0.527 1.133,0.789 1.957,0.789 0.735,0 1.317,-0.235 1.743,-0.711 0.429,-0.473 0.644,-1.117 0.644,-1.93 z m -0.898,0.266 c -0.008,0.488 -0.145,0.883 -0.414,1.176 -0.27,0.293 -0.625,0.437 -1.067,0.437 -0.5,0 -0.902,-0.141 -1.203,-0.422 -0.301,-0.285 -0.477,-0.683 -0.519,-1.199 z" /><g
         transform="matrix(1,0,0,-1,0,250.5)"
         id="g370"><path
           id="path372"
           style="fill:none;stroke:#fc4f30;stroke-width:2;stroke-linecap:butt;stroke-linejoin:round;stroke-miterlimit:4;stroke-dasharray:7.4, 3.2;stroke-dashoffset:0;stroke-opacity:1"
           d="m 122.863,38.477 h 20" /></g><path
         id="path374"
         style="fill:#000000;fill-opacity:1;fill-rule:nonzero;stroke:none"
         d="m 152.676,209.344 v -2.899 h -0.903 v 7.547 h 0.903 v -0.828 c 0.187,0.324 0.426,0.566 0.715,0.723 0.289,0.156 0.632,0.238 1.031,0.238 0.668,0 1.207,-0.266 1.621,-0.793 0.414,-0.527 0.621,-1.219 0.621,-2.078 0,-0.859 -0.207,-1.555 -0.621,-2.082 -0.414,-0.527 -0.953,-0.789 -1.621,-0.789 -0.399,0 -0.742,0.078 -1.031,0.234 -0.289,0.16 -0.528,0.403 -0.715,0.727 z m 3.058,1.91 c 0,0.66 -0.136,1.18 -0.41,1.555 -0.269,0.375 -0.644,0.562 -1.121,0.562 -0.473,0 -0.848,-0.187 -1.121,-0.562 -0.27,-0.375 -0.406,-0.895 -0.406,-1.555 0,-0.66 0.136,-1.18 0.406,-1.555 0.273,-0.375 0.648,-0.566 1.121,-0.566 0.477,0 0.852,0.191 1.121,0.566 0.274,0.375 0.41,0.895 0.41,1.555 z" /><path
         id="path376"
         style="fill:#000000;fill-opacity:1;fill-rule:nonzero;stroke:none"
         d="m 160.641,211.273 c -0.727,0 -1.231,-0.085 -1.512,-0.25 -0.277,-0.164 -0.418,-0.449 -0.418,-0.851 0,-0.317 0.105,-0.57 0.316,-0.758 0.207,-0.187 0.496,-0.281 0.856,-0.281 0.5,0 0.898,0.179 1.199,0.531 0.301,0.352 0.453,0.824 0.453,1.406 v 0.203 z m 1.793,0.372 v -3.122 h -0.899 v 0.829 c -0.207,-0.329 -0.461,-0.575 -0.769,-0.735 -0.305,-0.156 -0.68,-0.234 -1.121,-0.234 -0.563,0 -1.008,0.156 -1.336,0.469 -0.332,0.316 -0.497,0.738 -0.497,1.265 0,0.613 0.204,1.078 0.618,1.391 0.41,0.312 1.027,0.469 1.843,0.469 h 1.262 v 0.085 c 0,0.415 -0.137,0.735 -0.41,0.961 -0.27,0.227 -0.652,0.34 -1.145,0.34 -0.312,0 -0.617,-0.039 -0.914,-0.113 -0.296,-0.074 -0.582,-0.188 -0.851,-0.336 v 0.828 c 0.328,0.129 0.644,0.223 0.953,0.285 0.312,0.063 0.613,0.098 0.906,0.098 0.789,0 1.383,-0.207 1.774,-0.617 0.39,-0.41 0.586,-1.031 0.586,-1.863 z" /><path
         id="path378"
         style="fill:#000000;fill-opacity:1;fill-rule:nonzero;stroke:none"
         d="m 167.449,213.152 c -0.101,0.059 -0.211,0.102 -0.328,0.129 -0.117,0.028 -0.25,0.043 -0.391,0.043 -0.511,0 -0.898,-0.164 -1.171,-0.496 -0.274,-0.332 -0.407,-0.805 -0.407,-1.422 v -2.883 h -0.906 v 5.469 h 0.906 v -0.851 c 0.188,0.332 0.434,0.582 0.735,0.742 0.304,0.16 0.672,0.242 1.105,0.242 0.063,0 0.129,-0.004 0.207,-0.016 0.074,-0.004 0.156,-0.019 0.246,-0.035 z" /><path
         id="path380"
         style="fill:#000000;fill-opacity:1;fill-rule:nonzero;stroke:none"
         d="m 169.281,215.547 v -1.555 h 1.852 v -0.699 h -1.852 v -2.969 c 0,-0.445 0.063,-0.73 0.184,-0.859 0.121,-0.125 0.371,-0.192 0.746,-0.192 h 0.922 v -0.75 h -0.922 c -0.695,0 -1.172,0.129 -1.438,0.387 -0.261,0.262 -0.394,0.731 -0.394,1.414 v 2.969 h -0.66 v 0.699 h 0.66 v 1.555 z" /><path
         id="path382"
         style="fill:#000000;fill-opacity:1;fill-rule:nonzero;stroke:none"
         d="m 172.312,213.992 h 0.899 v -5.469 h -0.899 z m 0,2.129 h 0.899 v -1.137 h -0.899 z" /><path
         id="path384"
         style="fill:#000000;fill-opacity:1;fill-rule:nonzero;stroke:none"
         d="m 179.027,213.781 v -0.84 c -0.254,0.141 -0.507,0.247 -0.761,0.317 -0.258,0.07 -0.516,0.105 -0.774,0.105 -0.586,0 -1.039,-0.187 -1.359,-0.554 -0.324,-0.371 -0.485,-0.887 -0.485,-1.555 0,-0.668 0.161,-1.188 0.485,-1.559 0.32,-0.367 0.773,-0.55 1.359,-0.55 0.258,0 0.516,0.035 0.774,0.105 0.254,0.066 0.507,0.172 0.761,0.312 v -0.828 c -0.25,-0.117 -0.511,-0.207 -0.777,-0.265 -0.27,-0.059 -0.555,-0.086 -0.859,-0.086 -0.821,0 -1.477,0.258 -1.961,0.773 -0.485,0.52 -0.727,1.219 -0.727,2.098 0,0.891 0.242,1.594 0.735,2.101 0.488,0.512 1.16,0.77 2.015,0.77 0.274,0 0.543,-0.031 0.809,-0.086 0.261,-0.059 0.519,-0.144 0.765,-0.258 z" /><path
         id="path386"
         style="fill:#000000;fill-opacity:1;fill-rule:nonzero;stroke:none"
         d="m 180.59,216.121 h 0.898 v -7.598 h -0.898 z" /><path
         id="path388"
         style="fill:#000000;fill-opacity:1;fill-rule:nonzero;stroke:none"
         d="m 188.047,211.484 v -0.441 h -4.133 c 0.043,-0.617 0.227,-1.09 0.563,-1.414 0.332,-0.324 0.796,-0.484 1.39,-0.484 0.348,0 0.68,0.043 1.004,0.125 0.324,0.085 0.649,0.21 0.965,0.382 v -0.851 c -0.32,-0.137 -0.652,-0.239 -0.992,-0.313 -0.336,-0.07 -0.68,-0.105 -1.028,-0.105 -0.875,0 -1.566,0.254 -2.074,0.758 -0.508,0.511 -0.765,1.199 -0.765,2.062 0,0.895 0.242,1.606 0.726,2.133 0.485,0.523 1.137,0.789 1.957,0.789 0.735,0 1.317,-0.238 1.746,-0.711 0.426,-0.473 0.641,-1.117 0.641,-1.93 z m -0.899,0.262 c -0.007,0.492 -0.144,0.883 -0.414,1.176 -0.265,0.293 -0.621,0.441 -1.066,0.441 -0.5,0 -0.902,-0.14 -1.203,-0.425 -0.301,-0.286 -0.473,-0.684 -0.52,-1.196 z" /><path
         id="path390"
         style="fill:#000000;fill-opacity:1;fill-rule:nonzero;stroke:none"
         d="m 189.066,211.664 h 2.633 v -0.801 h -2.633 z" /><path
         id="path392"
         style="fill:#000000;fill-opacity:1;fill-rule:nonzero;stroke:none"
         d="m 194,209.344 v -2.899 h -0.906 v 7.547 H 194 v -0.828 c 0.188,0.324 0.426,0.566 0.715,0.723 0.289,0.156 0.633,0.238 1.031,0.238 0.664,0 1.203,-0.266 1.621,-0.793 0.414,-0.527 0.621,-1.219 0.621,-2.078 0,-0.859 -0.207,-1.555 -0.621,-2.082 -0.418,-0.527 -0.957,-0.789 -1.621,-0.789 -0.398,0 -0.742,0.078 -1.031,0.234 -0.289,0.16 -0.527,0.403 -0.715,0.727 z m 3.055,1.91 c 0,0.66 -0.133,1.18 -0.407,1.555 -0.273,0.375 -0.644,0.562 -1.121,0.562 -0.476,0 -0.847,-0.187 -1.121,-0.562 -0.273,-0.375 -0.406,-0.895 -0.406,-1.555 0,-0.66 0.133,-1.18 0.406,-1.555 0.274,-0.375 0.645,-0.566 1.121,-0.566 0.477,0 0.848,0.191 1.121,0.566 0.274,0.375 0.407,0.895 0.407,1.555 z" /><path
         id="path394"
         style="fill:#000000;fill-opacity:1;fill-rule:nonzero;stroke:none"
         d="m 201.598,213.363 c -0.485,0 -0.864,-0.187 -1.145,-0.566 -0.281,-0.375 -0.418,-0.891 -0.418,-1.543 0,-0.656 0.137,-1.172 0.414,-1.547 0.281,-0.375 0.664,-0.562 1.149,-0.562 0.476,0 0.855,0.187 1.136,0.566 0.278,0.375 0.418,0.891 0.418,1.543 0,0.648 -0.14,1.16 -0.418,1.539 -0.281,0.379 -0.66,0.57 -1.136,0.57 z m 0,0.762 c 0.781,0 1.394,-0.254 1.84,-0.766 0.445,-0.504 0.667,-1.207 0.667,-2.105 0,-0.895 -0.222,-1.598 -0.667,-2.109 -0.446,-0.508 -1.059,-0.762 -1.84,-0.762 -0.786,0 -1.403,0.254 -1.844,0.762 -0.445,0.511 -0.668,1.214 -0.668,2.109 0,0.898 0.223,1.601 0.668,2.105 0.441,0.512 1.058,0.766 1.844,0.766 z" /><path
         id="path396"
         style="fill:#000000;fill-opacity:1;fill-rule:nonzero;stroke:none"
         d="m 205.594,216.121 h 0.898 v -7.598 h -0.898 z" /><path
         id="path398"
         style="fill:#000000;fill-opacity:1;fill-rule:nonzero;stroke:none"
         d="m 210.648,208.016 c -0.253,-0.653 -0.5,-1.075 -0.742,-1.274 -0.242,-0.199 -0.562,-0.297 -0.965,-0.297 h -0.718 v 0.75 h 0.527 c 0.246,0 0.438,0.059 0.574,0.176 0.137,0.117 0.289,0.395 0.457,0.832 l 0.16,0.406 -2.211,5.383 h 0.95 l 1.711,-4.277 1.711,4.277 h 0.949 z" /><path
         id="path400"
         style="fill:#000000;fill-opacity:1;fill-rule:nonzero;stroke:none"
         d="m 218.551,212.941 c 0.222,0.407 0.492,0.704 0.804,0.895 0.313,0.191 0.68,0.289 1.102,0.289 0.57,0 1.012,-0.199 1.32,-0.602 0.309,-0.394 0.465,-0.964 0.465,-1.699 v -3.301 h -0.902 v 3.274 c 0,0.523 -0.094,0.91 -0.281,1.164 -0.184,0.254 -0.469,0.383 -0.848,0.383 -0.465,0 -0.836,-0.156 -1.106,-0.465 -0.269,-0.309 -0.406,-0.731 -0.406,-1.266 v -3.09 h -0.902 v 3.274 c 0,0.527 -0.09,0.914 -0.277,1.168 -0.184,0.25 -0.473,0.379 -0.86,0.379 -0.461,0 -0.824,-0.156 -1.094,-0.469 -0.269,-0.309 -0.406,-0.73 -0.406,-1.262 v -3.09 h -0.902 v 5.469 h 0.902 v -0.851 c 0.207,0.336 0.453,0.586 0.738,0.742 0.286,0.16 0.625,0.242 1.02,0.242 0.398,0 0.734,-0.102 1.016,-0.305 0.277,-0.199 0.484,-0.492 0.617,-0.879 z" /><path
         id="path402"
         style="fill:#000000;fill-opacity:1;fill-rule:nonzero;stroke:none"
         d="m 228.711,211.484 v -0.441 h -4.133 c 0.043,-0.617 0.227,-1.09 0.563,-1.414 0.332,-0.324 0.797,-0.484 1.39,-0.484 0.348,0 0.68,0.043 1.004,0.125 0.324,0.085 0.649,0.21 0.965,0.382 v -0.851 c -0.32,-0.137 -0.652,-0.239 -0.992,-0.313 -0.336,-0.07 -0.68,-0.105 -1.028,-0.105 -0.875,0 -1.566,0.254 -2.074,0.758 -0.508,0.511 -0.765,1.199 -0.765,2.062 0,0.895 0.242,1.606 0.726,2.133 0.485,0.523 1.137,0.789 1.957,0.789 0.735,0 1.317,-0.238 1.746,-0.711 0.426,-0.473 0.641,-1.117 0.641,-1.93 z m -0.899,0.262 c -0.007,0.492 -0.144,0.883 -0.414,1.176 -0.265,0.293 -0.621,0.441 -1.066,0.441 -0.5,0 -0.902,-0.14 -1.203,-0.425 -0.301,-0.286 -0.473,-0.684 -0.52,-1.196 z" /><path
         id="path404"
         style="fill:#000000;fill-opacity:1;fill-rule:nonzero;stroke:none"
         d="m 233.355,213.152 c -0.101,0.059 -0.21,0.102 -0.332,0.129 -0.117,0.028 -0.25,0.043 -0.39,0.043 -0.508,0 -0.899,-0.164 -1.172,-0.496 -0.27,-0.332 -0.406,-0.805 -0.406,-1.422 v -2.883 h -0.903 v 5.469 h 0.903 v -0.851 c 0.187,0.332 0.433,0.582 0.738,0.742 0.301,0.16 0.668,0.242 1.102,0.242 0.062,0 0.132,-0.004 0.207,-0.016 0.074,-0.004 0.156,-0.019 0.246,-0.035 z" /><g
         transform="matrix(1,0,0,-1,0,250.5)"
         id="g406"><path
           id="path408"
           style="fill:none;stroke:#e5ae38;stroke-width:2;stroke-linecap:square;stroke-linejoin:round;stroke-miterlimit:4;stroke-dasharray:none;stroke-opacity:1"
           d="m 122.863,53.156 h 20" /></g><path
         id="path410"
         style="fill:#000000;fill-opacity:1;fill-rule:nonzero;stroke:none"
         d="m 152.676,194.664 v -2.898 h -0.903 v 7.546 h 0.903 v -0.828 c 0.187,0.325 0.426,0.567 0.715,0.723 0.289,0.16 0.632,0.238 1.031,0.238 0.668,0 1.207,-0.261 1.621,-0.789 0.414,-0.527 0.621,-1.222 0.621,-2.082 0,-0.859 -0.207,-1.551 -0.621,-2.082 -0.414,-0.527 -0.953,-0.789 -1.621,-0.789 -0.399,0 -0.742,0.078 -1.031,0.238 -0.289,0.157 -0.528,0.399 -0.715,0.723 z m 3.058,1.91 c 0,0.66 -0.136,1.18 -0.41,1.555 -0.269,0.375 -0.644,0.566 -1.121,0.566 -0.473,0 -0.848,-0.191 -1.121,-0.566 -0.27,-0.375 -0.406,-0.895 -0.406,-1.555 0,-0.66 0.136,-1.179 0.406,-1.554 0.273,-0.375 0.648,-0.563 1.121,-0.563 0.477,0 0.852,0.188 1.121,0.563 0.274,0.375 0.41,0.894 0.41,1.554 z" /><path
         id="path412"
         style="fill:#000000;fill-opacity:1;fill-rule:nonzero;stroke:none"
         d="m 160.273,198.684 c -0.48,0 -0.863,-0.188 -1.144,-0.563 -0.277,-0.375 -0.418,-0.891 -0.418,-1.547 0,-0.652 0.137,-1.168 0.418,-1.543 0.277,-0.379 0.66,-0.566 1.144,-0.566 0.477,0 0.86,0.187 1.137,0.566 0.281,0.379 0.422,0.895 0.422,1.543 0,0.649 -0.141,1.164 -0.422,1.543 -0.277,0.379 -0.66,0.567 -1.137,0.567 z m 0,0.761 c 0.782,0 1.395,-0.254 1.84,-0.761 0.446,-0.508 0.672,-1.211 0.672,-2.11 0,-0.894 -0.226,-1.597 -0.672,-2.105 -0.445,-0.512 -1.058,-0.766 -1.84,-0.766 -0.785,0 -1.398,0.254 -1.843,0.766 -0.446,0.508 -0.668,1.211 -0.668,2.105 0,0.899 0.222,1.602 0.668,2.11 0.445,0.507 1.058,0.761 1.843,0.761 z" /><path
         id="path414"
         style="fill:#000000;fill-opacity:1;fill-rule:nonzero;stroke:none"
         d="m 164.273,201.445 h 0.898 v -7.602 h -0.898 z" /><path
         id="path416"
         style="fill:#000000;fill-opacity:1;fill-rule:nonzero;stroke:none"
         d="m 169.324,193.336 c -0.254,-0.648 -0.5,-1.074 -0.742,-1.274 -0.238,-0.199 -0.562,-0.296 -0.965,-0.296 h -0.719 v 0.75 h 0.528 c 0.246,0 0.441,0.058 0.574,0.179 0.141,0.114 0.289,0.391 0.457,0.828 l 0.16,0.411 -2.211,5.378 h 0.953 l 1.707,-4.273 1.711,4.273 h 0.95 z" /><path
         id="path418"
         style="fill:#000000;fill-opacity:1;fill-rule:nonzero;stroke:none"
         d="m 177.227,198.266 c 0.222,0.402 0.492,0.699 0.804,0.89 0.313,0.192 0.68,0.289 1.106,0.289 0.57,0 1.008,-0.199 1.316,-0.597 0.309,-0.399 0.465,-0.965 0.465,-1.7 v -3.304 h -0.902 v 3.273 c 0,0.524 -0.094,0.914 -0.282,1.164 -0.183,0.254 -0.468,0.383 -0.847,0.383 -0.465,0 -0.832,-0.156 -1.106,-0.465 -0.269,-0.308 -0.402,-0.73 -0.402,-1.261 v -3.094 h -0.906 v 3.273 c 0,0.528 -0.09,0.918 -0.278,1.168 -0.183,0.254 -0.472,0.379 -0.859,0.379 -0.457,0 -0.824,-0.156 -1.094,-0.465 -0.269,-0.312 -0.406,-0.73 -0.406,-1.261 v -3.094 h -0.902 v 5.468 h 0.902 v -0.847 c 0.207,0.336 0.453,0.582 0.738,0.742 0.285,0.16 0.625,0.238 1.02,0.238 0.398,0 0.738,-0.101 1.015,-0.304 0.278,-0.2 0.485,-0.493 0.618,-0.875 z" /><path
         id="path420"
         style="fill:#000000;fill-opacity:1;fill-rule:nonzero;stroke:none"
         d="m 187.387,196.805 v -0.438 h -4.129 c 0.039,-0.621 0.226,-1.09 0.558,-1.414 0.332,-0.324 0.797,-0.488 1.395,-0.488 0.344,0 0.68,0.043 1,0.129 0.324,0.082 0.648,0.211 0.969,0.379 v -0.848 c -0.325,-0.137 -0.657,-0.242 -0.992,-0.313 -0.34,-0.074 -0.684,-0.109 -1.032,-0.109 -0.871,0 -1.562,0.254 -2.074,0.762 -0.508,0.508 -0.762,1.195 -0.762,2.062 0,0.895 0.242,1.606 0.723,2.129 0.484,0.528 1.137,0.789 1.957,0.789 0.734,0 1.316,-0.238 1.746,-0.711 0.426,-0.472 0.641,-1.117 0.641,-1.929 z m -0.899,0.265 c -0.004,0.489 -0.144,0.879 -0.41,1.172 -0.269,0.297 -0.625,0.442 -1.07,0.442 -0.5,0 -0.899,-0.141 -1.203,-0.426 -0.301,-0.281 -0.473,-0.68 -0.52,-1.196 z" /><path
         id="path422"
         style="fill:#000000;fill-opacity:1;fill-rule:nonzero;stroke:none"
         d="m 192.031,198.477 c -0.101,0.058 -0.211,0.097 -0.332,0.125 -0.117,0.031 -0.246,0.043 -0.39,0.043 -0.508,0 -0.899,-0.165 -1.172,-0.497 -0.27,-0.328 -0.407,-0.804 -0.407,-1.421 v -2.883 h -0.902 v 5.468 h 0.902 v -0.847 c 0.192,0.332 0.438,0.578 0.739,0.738 0.301,0.16 0.672,0.242 1.105,0.242 0.059,0 0.129,-0.004 0.203,-0.011 0.075,-0.008 0.157,-0.02 0.25,-0.036 z" /><path
         id="path424"
         style="fill:#000000;fill-opacity:1;fill-rule:nonzero;stroke:none"
         d="m 192.512,196.984 h 2.629 v -0.801 h -2.629 z" /><path
         id="path426"
         style="fill:#000000;fill-opacity:1;fill-rule:nonzero;stroke:none"
         d="m 197.441,194.664 v -2.898 h -0.902 v 7.546 h 0.902 v -0.828 c 0.188,0.325 0.426,0.567 0.715,0.723 0.289,0.16 0.633,0.238 1.032,0.238 0.667,0 1.207,-0.261 1.621,-0.789 0.414,-0.527 0.621,-1.222 0.621,-2.082 0,-0.859 -0.207,-1.551 -0.621,-2.082 -0.414,-0.527 -0.954,-0.789 -1.621,-0.789 -0.399,0 -0.743,0.078 -1.032,0.238 -0.289,0.157 -0.527,0.399 -0.715,0.723 z m 3.059,1.91 c 0,0.66 -0.137,1.18 -0.41,1.555 -0.27,0.375 -0.645,0.566 -1.121,0.566 -0.473,0 -0.848,-0.191 -1.121,-0.566 -0.27,-0.375 -0.407,-0.895 -0.407,-1.555 0,-0.66 0.137,-1.179 0.407,-1.554 0.273,-0.375 0.648,-0.563 1.121,-0.563 0.476,0 0.851,0.188 1.121,0.563 0.273,0.375 0.41,0.894 0.41,1.554 z" /><path
         id="path428"
         style="fill:#000000;fill-opacity:1;fill-rule:nonzero;stroke:none"
         d="m 205.039,198.684 c -0.48,0 -0.863,-0.188 -1.144,-0.563 -0.278,-0.375 -0.418,-0.891 -0.418,-1.547 0,-0.652 0.136,-1.168 0.418,-1.543 0.277,-0.379 0.66,-0.566 1.144,-0.566 0.481,0 0.859,0.187 1.137,0.566 0.281,0.379 0.422,0.895 0.422,1.543 0,0.649 -0.141,1.164 -0.422,1.543 -0.278,0.379 -0.656,0.567 -1.137,0.567 z m 0,0.761 c 0.781,0 1.395,-0.254 1.84,-0.761 0.445,-0.508 0.672,-1.211 0.672,-2.11 0,-0.894 -0.227,-1.597 -0.672,-2.105 -0.445,-0.512 -1.059,-0.766 -1.84,-0.766 -0.785,0 -1.398,0.254 -1.844,0.766 -0.445,0.508 -0.668,1.211 -0.668,2.105 0,0.899 0.223,1.602 0.668,2.11 0.446,0.507 1.059,0.761 1.844,0.761 z" /><path
         id="path430"
         style="fill:#000000;fill-opacity:1;fill-rule:nonzero;stroke:none"
         d="m 209.039,201.445 h 0.898 v -7.602 h -0.898 z" /><path
         id="path432"
         style="fill:#000000;fill-opacity:1;fill-rule:nonzero;stroke:none"
         d="m 214.09,193.336 c -0.25,-0.648 -0.5,-1.074 -0.742,-1.274 -0.239,-0.199 -0.563,-0.296 -0.965,-0.296 h -0.719 v 0.75 h 0.527 c 0.25,0 0.442,0.058 0.579,0.179 0.136,0.114 0.289,0.391 0.453,0.828 l 0.16,0.411 -2.211,5.378 h 0.953 l 1.707,-4.273 1.711,4.273 h 0.953 z" /><path
         id="path434"
         style="fill:#000000;fill-opacity:1;fill-rule:nonzero;stroke:none"
         d="m 221.992,198.266 c 0.227,0.402 0.492,0.699 0.805,0.89 0.312,0.192 0.683,0.289 1.105,0.289 0.571,0 1.008,-0.199 1.317,-0.597 0.312,-0.399 0.465,-0.965 0.465,-1.7 v -3.304 h -0.903 v 3.273 c 0,0.524 -0.093,0.914 -0.281,1.164 -0.184,0.254 -0.465,0.383 -0.848,0.383 -0.464,0 -0.832,-0.156 -1.105,-0.465 -0.27,-0.308 -0.402,-0.73 -0.402,-1.261 v -3.094 h -0.903 v 3.273 c 0,0.528 -0.094,0.918 -0.281,1.168 -0.184,0.254 -0.469,0.379 -0.859,0.379 -0.457,0 -0.825,-0.156 -1.094,-0.465 -0.27,-0.312 -0.406,-0.73 -0.406,-1.261 v -3.094 h -0.903 v 5.468 h 0.903 v -0.847 c 0.207,0.336 0.453,0.582 0.738,0.742 0.289,0.16 0.629,0.238 1.019,0.238 0.399,0 0.739,-0.101 1.016,-0.304 0.277,-0.2 0.484,-0.493 0.617,-0.875 z" /><path
         id="path436"
         style="fill:#000000;fill-opacity:1;fill-rule:nonzero;stroke:none"
         d="m 232.152,196.805 v -0.438 h -4.129 c 0.039,-0.621 0.227,-1.09 0.559,-1.414 0.332,-0.324 0.797,-0.488 1.395,-0.488 0.343,0 0.679,0.043 1.003,0.129 0.321,0.082 0.645,0.211 0.965,0.379 v -0.848 c -0.324,-0.137 -0.656,-0.242 -0.992,-0.313 -0.34,-0.074 -0.683,-0.109 -1.031,-0.109 -0.871,0 -1.563,0.254 -2.074,0.762 -0.508,0.508 -0.762,1.195 -0.762,2.062 0,0.895 0.242,1.606 0.723,2.129 0.484,0.528 1.136,0.789 1.957,0.789 0.734,0 1.316,-0.238 1.746,-0.711 0.429,-0.472 0.64,-1.117 0.64,-1.929 z m -0.898,0.265 c -0.004,0.489 -0.141,0.879 -0.41,1.172 -0.27,0.297 -0.625,0.442 -1.067,0.442 -0.504,0 -0.902,-0.141 -1.203,-0.426 -0.304,-0.281 -0.476,-0.68 -0.523,-1.196 z" /><path
         id="path438"
         style="fill:#000000;fill-opacity:1;fill-rule:nonzero;stroke:none"
         d="m 236.797,198.477 c -0.102,0.058 -0.211,0.097 -0.328,0.125 -0.121,0.031 -0.25,0.043 -0.395,0.043 -0.508,0 -0.898,-0.165 -1.168,-0.497 -0.273,-0.328 -0.41,-0.804 -0.41,-1.421 v -2.883 h -0.902 v 5.468 h 0.902 v -0.847 c 0.192,0.332 0.438,0.578 0.738,0.738 0.305,0.16 0.672,0.242 1.106,0.242 0.058,0 0.129,-0.004 0.203,-0.011 0.074,-0.008 0.16,-0.02 0.25,-0.036 z" /></g></g></svg>