<?xml version="1.0" encoding="UTF-8" standalone="no"?>
<!-- Created with Inkscape (http://www.inkscape.org/) -->

<svg
   xmlns:dc="http://purl.org/dc/elements/1.1/"
   xmlns:cc="http://creativecommons.org/ns#"
   xmlns:rdf="http://www.w3.org/1999/02/22-rdf-syntax-ns#"
   xmlns:svg="http://www.w3.org/2000/svg"
   xmlns="http://www.w3.org/2000/svg"
   xmlns:sodipodi="http://sodipodi.sourceforge.net/DTD/sodipodi-0.dtd"
   xmlns:inkscape="http://www.inkscape.org/namespaces/inkscape"
   version="1.1"
   id="svg2"
   xml:space="preserve"
   width="599.99988"
   height="428.409"
   viewBox="0 0 599.99988 428.409"
   sodipodi:docname="tracks.svg"
   inkscape:version="0.91 r13725"><metadata
     id="metadata8"><rdf:RDF><cc:Work
         rdf:about=""><dc:format>image/svg+xml</dc:format><dc:type
           rdf:resource="http://purl.org/dc/dcmitype/StillImage" /><dc:title></dc:title></cc:Work></rdf:RDF></metadata><defs
     id="defs6"><clipPath
       clipPathUnits="userSpaceOnUse"
       id="clipPath20"><path
         d="m 0,0 528,0 0,377 -528,0 z"
         id="path18"
         inkscape:connector-curvature="0" /></clipPath><clipPath
       clipPathUnits="userSpaceOnUse"
       id="clipPath30"><path
         d="m 17,13 491,0 0,293 -491,0 z"
         id="path28"
         inkscape:connector-curvature="0" /></clipPath><clipPath
       clipPathUnits="userSpaceOnUse"
       id="clipPath146"><path
         d="m 84,215 424,0 0,152 -424,0 z"
         id="path144"
         inkscape:connector-curvature="0" /></clipPath><clipPath
       clipPathUnits="userSpaceOnUse"
       id="clipPath160"><path
         d="m 84,186 424,0 0,152 -424,0 z"
         id="path158"
         inkscape:connector-curvature="0" /></clipPath><clipPath
       clipPathUnits="userSpaceOnUse"
       id="clipPath174"><path
         d="m 0,0 528,0 0,377 -528,0 z"
         id="path172"
         inkscape:connector-curvature="0" /></clipPath><clipPath
       clipPathUnits="userSpaceOnUse"
       id="clipPath188"><path
         d="m 84,156 424,0 0,153 -424,0 z"
         id="path186"
         inkscape:connector-curvature="0" /></clipPath><clipPath
       clipPathUnits="userSpaceOnUse"
       id="clipPath202"><path
         d="m 84,127 424,0 0,152 -424,0 z"
         id="path200"
         inkscape:connector-curvature="0" /></clipPath><clipPath
       clipPathUnits="userSpaceOnUse"
       id="clipPath216"><path
         d="m 84,98 424,0 0,152 -424,0 z"
         id="path214"
         inkscape:connector-curvature="0" /></clipPath><clipPath
       clipPathUnits="userSpaceOnUse"
       id="clipPath230"><path
         d="m 84,69 424,0 0,152 -424,0 z"
         id="path228"
         inkscape:connector-curvature="0" /></clipPath><clipPath
       clipPathUnits="userSpaceOnUse"
       id="clipPath244"><path
         d="m 84,40 424,0 0,152 -424,0 z"
         id="path242"
         inkscape:connector-curvature="0" /></clipPath><clipPath
       clipPathUnits="userSpaceOnUse"
       id="clipPath258"><path
         d="m 84,10 424,0 0,153 -424,0 z"
         id="path256"
         inkscape:connector-curvature="0" /></clipPath><clipPath
       clipPathUnits="userSpaceOnUse"
       id="clipPath272"><path
         d="m 84,0 424,0 0,133 -424,0 z"
         id="path270"
         inkscape:connector-curvature="0" /></clipPath><clipPath
       clipPathUnits="userSpaceOnUse"
       id="clipPath286"><path
         d="m 84,0 424,0 0,104 -424,0 z"
         id="path284"
         inkscape:connector-curvature="0" /></clipPath><clipPath
       clipPathUnits="userSpaceOnUse"
       id="clipPath300"><path
         d="m 0,0 528,0 0,377 -528,0 z"
         id="path298"
         inkscape:connector-curvature="0" /></clipPath></defs><sodipodi:namedview
     pagecolor="#ffffff"
     bordercolor="#666666"
     borderopacity="1"
     objecttolerance="10"
     gridtolerance="10"
     guidetolerance="10"
     inkscape:pageopacity="0"
     inkscape:pageshadow="2"
     inkscape:window-width="2560"
     inkscape:window-height="1369"
     id="namedview4"
     showgrid="false"
     inkscape:zoom="2.2281168"
     inkscape:cx="299.99996"
     inkscape:cy="232.15691"
     inkscape:window-x="1440"
     inkscape:window-y="434"
     inkscape:window-maximized="1"
     inkscape:current-layer="g296"
     fit-margin-top="0"
     fit-margin-left="0"
     fit-margin-right="0"
     fit-margin-bottom="0" /><g
     id="g10"
     inkscape:groupmode="layer"
     inkscape:label="figure5"
     transform="matrix(1.3333333,0,0,-1.3333333,-52.000047,465.53782)"><g
       id="g12"
       transform="matrix(0.85227259,0,0,0.85227259,39.000036,27.846616)" /><g
       id="g14"
       transform="matrix(0.85227259,0,0,0.85227259,39.000036,27.846616)"><g
         id="g16"
         clip-path="url(#clipPath20)"><path
           d="m 0,-5.562877e-6 528,0 L 528,376.99999 l -528,0 z"
           style="fill:#ffffff;fill-opacity:1;fill-rule:nonzero;stroke:none"
           id="path22"
           inkscape:connector-curvature="0" /></g></g><g
       id="g24"
       transform="matrix(0.85227259,0,0,0.85227259,39.000036,27.846616)"><g
         id="g26"
         clip-path="url(#clipPath30)"><path
           d="m 17.15039,276.1836 16.75362,0 0,29.2 -16.75362,0 z"
           style="fill:#e7e7e7;fill-opacity:1;fill-rule:evenodd;stroke:none"
           id="path32"
           inkscape:connector-curvature="0" /><path
           d="m 33.90402,276.1836 16.75362,0 0,29.2 -16.75362,0 z"
           style="fill:#e7e7e7;fill-opacity:1;fill-rule:evenodd;stroke:none"
           id="path34"
           inkscape:connector-curvature="0" /><path
           d="m 50.65764,276.1836 16.75362,0 0,29.2 -16.75362,0 z"
           style="fill:#e7e7e7;fill-opacity:1;fill-rule:evenodd;stroke:none"
           id="path36"
           inkscape:connector-curvature="0" /><path
           d="m 67.41126,276.1836 16.75362,0 0,29.2 -16.75362,0 z"
           style="fill:#e7e7e7;fill-opacity:1;fill-rule:evenodd;stroke:none"
           id="path38"
           inkscape:connector-curvature="0" /><path
           d="m 84.16488,276.1836 423.7442,0 0,29.2 -423.7442,0 z"
           style="fill:#e7e7e7;fill-opacity:1;fill-rule:evenodd;stroke:none"
           id="path40"
           inkscape:connector-curvature="0" /><path
           d="m 17.15039,246.9836 16.75362,0 0,29.2 -16.75362,0 z"
           style="fill:#ffffff;fill-opacity:1;fill-rule:evenodd;stroke:none"
           id="path42"
           inkscape:connector-curvature="0" /><path
           d="m 33.90402,246.9836 16.75362,0 0,29.2 -16.75362,0 z"
           style="fill:#ffffff;fill-opacity:1;fill-rule:evenodd;stroke:none"
           id="path44"
           inkscape:connector-curvature="0" /><path
           d="m 50.65764,246.9836 16.75362,0 0,29.2 -16.75362,0 z"
           style="fill:#ffffff;fill-opacity:1;fill-rule:evenodd;stroke:none"
           id="path46"
           inkscape:connector-curvature="0" /><path
           d="m 67.41126,246.9836 16.75362,0 0,29.2 -16.75362,0 z"
           style="fill:#ffffff;fill-opacity:1;fill-rule:evenodd;stroke:none"
           id="path48"
           inkscape:connector-curvature="0" /><path
           d="m 84.16488,246.9836 423.7442,0 0,29.2 -423.7442,0 z"
           style="fill:#ffffff;fill-opacity:1;fill-rule:evenodd;stroke:none"
           id="path50"
           inkscape:connector-curvature="0" /><path
           d="m 17.15039,217.7836 16.75362,0 0,29.2 -16.75362,0 z"
           style="fill:#e7e7e7;fill-opacity:1;fill-rule:evenodd;stroke:none"
           id="path52"
           inkscape:connector-curvature="0" /><path
           d="m 33.90402,217.7836 16.75362,0 0,29.2 -16.75362,0 z"
           style="fill:#e7e7e7;fill-opacity:1;fill-rule:evenodd;stroke:none"
           id="path54"
           inkscape:connector-curvature="0" /><path
           d="m 50.65764,217.7836 16.75362,0 0,29.2 -16.75362,0 z"
           style="fill:#e7e7e7;fill-opacity:1;fill-rule:evenodd;stroke:none"
           id="path56"
           inkscape:connector-curvature="0" /><path
           d="m 67.41126,217.7836 16.75362,0 0,29.2 -16.75362,0 z"
           style="fill:#e7e7e7;fill-opacity:1;fill-rule:evenodd;stroke:none"
           id="path58"
           inkscape:connector-curvature="0" /><path
           d="m 84.16488,217.7836 423.7442,0 0,29.2 -423.7442,0 z"
           style="fill:#e7e7e7;fill-opacity:1;fill-rule:evenodd;stroke:none"
           id="path60"
           inkscape:connector-curvature="0" /><path
           d="m 17.15039,188.5836 16.75362,0 0,29.2 -16.75362,0 z"
           style="fill:#ffffff;fill-opacity:1;fill-rule:evenodd;stroke:none"
           id="path62"
           inkscape:connector-curvature="0" /><path
           d="m 33.90402,188.5836 16.75362,0 0,29.2 -16.75362,0 z"
           style="fill:#ffffff;fill-opacity:1;fill-rule:evenodd;stroke:none"
           id="path64"
           inkscape:connector-curvature="0" /><path
           d="m 50.65764,188.5836 16.75362,0 0,29.2 -16.75362,0 z"
           style="fill:#ffffff;fill-opacity:1;fill-rule:evenodd;stroke:none"
           id="path66"
           inkscape:connector-curvature="0" /><path
           d="m 67.41126,188.5836 16.75362,0 0,29.2 -16.75362,0 z"
           style="fill:#ffffff;fill-opacity:1;fill-rule:evenodd;stroke:none"
           id="path68"
           inkscape:connector-curvature="0" /><path
           d="m 84.16488,188.5836 423.7442,0 0,29.2 -423.7442,0 z"
           style="fill:#ffffff;fill-opacity:1;fill-rule:evenodd;stroke:none"
           id="path70"
           inkscape:connector-curvature="0" /><path
           d="m 17.15039,159.3836 16.75362,0 0,29.2 -16.75362,0 z"
           style="fill:#e7e7e7;fill-opacity:1;fill-rule:evenodd;stroke:none"
           id="path72"
           inkscape:connector-curvature="0" /><path
           d="m 33.90402,159.3836 16.75362,0 0,29.2 -16.75362,0 z"
           style="fill:#e7e7e7;fill-opacity:1;fill-rule:evenodd;stroke:none"
           id="path74"
           inkscape:connector-curvature="0" /><path
           d="m 50.65764,159.3836 16.75362,0 0,29.2 -16.75362,0 z"
           style="fill:#e7e7e7;fill-opacity:1;fill-rule:evenodd;stroke:none"
           id="path76"
           inkscape:connector-curvature="0" /><path
           d="m 67.41126,159.3836 16.75362,0 0,29.2 -16.75362,0 z"
           style="fill:#e7e7e7;fill-opacity:1;fill-rule:evenodd;stroke:none"
           id="path78"
           inkscape:connector-curvature="0" /><path
           d="m 84.16488,159.3836 423.7442,0 0,29.2 -423.7442,0 z"
           style="fill:#e7e7e7;fill-opacity:1;fill-rule:evenodd;stroke:none"
           id="path80"
           inkscape:connector-curvature="0" /><path
           d="m 17.15039,130.1836 16.75362,0 0,29.2 -16.75362,0 z"
           style="fill:#ffffff;fill-opacity:1;fill-rule:evenodd;stroke:none"
           id="path82"
           inkscape:connector-curvature="0" /><path
           d="m 33.90402,130.1836 16.75362,0 0,29.2 -16.75362,0 z"
           style="fill:#ffffff;fill-opacity:1;fill-rule:evenodd;stroke:none"
           id="path84"
           inkscape:connector-curvature="0" /><path
           d="m 50.65764,130.1836 16.75362,0 0,29.2 -16.75362,0 z"
           style="fill:#ffffff;fill-opacity:1;fill-rule:evenodd;stroke:none"
           id="path86"
           inkscape:connector-curvature="0" /><path
           d="m 67.41126,130.1836 16.75362,0 0,29.2 -16.75362,0 z"
           style="fill:#ffffff;fill-opacity:1;fill-rule:evenodd;stroke:none"
           id="path88"
           inkscape:connector-curvature="0" /><path
           d="m 84.16488,130.1836 423.7442,0 0,29.2 -423.7442,0 z"
           style="fill:#ffffff;fill-opacity:1;fill-rule:evenodd;stroke:none"
           id="path90"
           inkscape:connector-curvature="0" /><path
           d="m 17.15039,100.9836 16.75362,0 0,29.2 -16.75362,0 z"
           style="fill:#e7e7e7;fill-opacity:1;fill-rule:evenodd;stroke:none"
           id="path92"
           inkscape:connector-curvature="0" /><path
           d="m 33.90402,100.9836 16.75362,0 0,29.2 -16.75362,0 z"
           style="fill:#e7e7e7;fill-opacity:1;fill-rule:evenodd;stroke:none"
           id="path94"
           inkscape:connector-curvature="0" /><path
           d="m 50.65764,100.9836 16.75362,0 0,29.2 -16.75362,0 z"
           style="fill:#e7e7e7;fill-opacity:1;fill-rule:evenodd;stroke:none"
           id="path96"
           inkscape:connector-curvature="0" /><path
           d="m 67.41126,100.9836 16.75362,0 0,29.2 -16.75362,0 z"
           style="fill:#e7e7e7;fill-opacity:1;fill-rule:evenodd;stroke:none"
           id="path98"
           inkscape:connector-curvature="0" /><path
           d="m 84.16488,100.9836 423.7442,0 0,29.2 -423.7442,0 z"
           style="fill:#e7e7e7;fill-opacity:1;fill-rule:evenodd;stroke:none"
           id="path100"
           inkscape:connector-curvature="0" /><path
           d="m 17.15039,71.78362 16.75362,0 0,29.2 -16.75362,0 z"
           style="fill:#ffffff;fill-opacity:1;fill-rule:evenodd;stroke:none"
           id="path102"
           inkscape:connector-curvature="0" /><path
           d="m 33.90402,71.78362 16.75362,0 0,29.2 -16.75362,0 z"
           style="fill:#ffffff;fill-opacity:1;fill-rule:evenodd;stroke:none"
           id="path104"
           inkscape:connector-curvature="0" /><path
           d="m 50.65764,71.78362 16.75362,0 0,29.2 -16.75362,0 z"
           style="fill:#ffffff;fill-opacity:1;fill-rule:evenodd;stroke:none"
           id="path106"
           inkscape:connector-curvature="0" /><path
           d="m 67.41126,71.78362 16.75362,0 0,29.2 -16.75362,0 z"
           style="fill:#ffffff;fill-opacity:1;fill-rule:evenodd;stroke:none"
           id="path108"
           inkscape:connector-curvature="0" /><path
           d="m 84.16488,71.78362 423.7442,0 0,29.2 -423.7442,0 z"
           style="fill:#ffffff;fill-opacity:1;fill-rule:evenodd;stroke:none"
           id="path110"
           inkscape:connector-curvature="0" /><path
           d="m 17.15039,42.58362 16.75362,0 0,29.2 -16.75362,0 z"
           style="fill:#e7e7e7;fill-opacity:1;fill-rule:evenodd;stroke:none"
           id="path112"
           inkscape:connector-curvature="0" /><path
           d="m 33.90402,42.58362 16.75362,0 0,29.2 -16.75362,0 z"
           style="fill:#e7e7e7;fill-opacity:1;fill-rule:evenodd;stroke:none"
           id="path114"
           inkscape:connector-curvature="0" /><path
           d="m 50.65764,42.58362 16.75362,0 0,29.2 -16.75362,0 z"
           style="fill:#e7e7e7;fill-opacity:1;fill-rule:evenodd;stroke:none"
           id="path116"
           inkscape:connector-curvature="0" /><path
           d="m 67.41126,42.58362 16.75362,0 0,29.2 -16.75362,0 z"
           style="fill:#e7e7e7;fill-opacity:1;fill-rule:evenodd;stroke:none"
           id="path118"
           inkscape:connector-curvature="0" /><path
           d="m 84.16488,42.58362 423.7442,0 0,29.2 -423.7442,0 z"
           style="fill:#e7e7e7;fill-opacity:1;fill-rule:evenodd;stroke:none"
           id="path120"
           inkscape:connector-curvature="0" /><path
           d="m 17.15039,13.38362 16.75362,0 0,29.2 -16.75362,0 z"
           style="fill:#ffffff;fill-opacity:1;fill-rule:evenodd;stroke:none"
           id="path122"
           inkscape:connector-curvature="0" /><path
           d="m 33.90402,13.38362 16.75362,0 0,29.2 -16.75362,0 z"
           style="fill:#ffffff;fill-opacity:1;fill-rule:evenodd;stroke:none"
           id="path124"
           inkscape:connector-curvature="0" /><path
           d="m 50.65764,13.38362 16.75362,0 0,29.2 -16.75362,0 z"
           style="fill:#ffffff;fill-opacity:1;fill-rule:evenodd;stroke:none"
           id="path126"
           inkscape:connector-curvature="0" /><path
           d="m 67.41126,13.38362 16.75362,0 0,29.2 -16.75362,0 z"
           style="fill:#ffffff;fill-opacity:1;fill-rule:evenodd;stroke:none"
           id="path128"
           inkscape:connector-curvature="0" /><path
           d="m 84.16488,13.38362 423.7442,0 0,29.2 -423.7442,0 z"
           style="fill:#ffffff;fill-opacity:1;fill-rule:evenodd;stroke:none"
           id="path130"
           inkscape:connector-curvature="0" /><g
           id="g132"
           transform="matrix(7.874016e-5,0,0,-7.874016e-5,17.15039,305.3836)"><path
             d="M 0,0 6232635,0"
             style="fill:none;stroke:#000000;stroke-width:25400;stroke-linecap:butt;stroke-linejoin:round;stroke-miterlimit:10;stroke-dasharray:none;stroke-opacity:1"
             id="path134"
             inkscape:connector-curvature="0" /></g><g
           id="g136"
           transform="matrix(7.874016e-5,0,0,-7.874016e-5,17.15039,305.3836)"><path
             d="m 0,3708400 6232635,0"
             style="fill:none;stroke:#000000;stroke-width:25400;stroke-linecap:butt;stroke-linejoin:round;stroke-miterlimit:10;stroke-dasharray:none;stroke-opacity:1"
             id="path138"
             inkscape:connector-curvature="0" /></g></g></g><g
       id="g140"
       transform="matrix(0.85227259,0,0,0.85227259,39.000036,27.846616)"><g
         id="g142"
         clip-path="url(#clipPath146)"><g
           id="g148"
           transform="translate(91.36488,-93)"><text
             transform="matrix(1,0,0,-1,0,377)"
             style="font-variant:normal;font-weight:normal;font-size:18px;font-family:Arial;-inkscape-font-specification:ArialMT;writing-mode:lr-tb;fill:#000000;fill-opacity:1;fill-rule:nonzero;stroke:none"
             id="text152"><tspan
               x="0 12.9996 25.0002 35.000999 40.0014 45.001801 55.002602 60.002998 66.002403 76.003197 86.003998 96.004799 105.0048 110.0052 114.0048 124.0056"
               y="0"
               sodipodi:role="line"
               id="tspan150">NB0.Introduction</tspan></text>
</g></g></g><g
       id="g154"
       transform="matrix(0.85227259,0,0,0.85227259,39.000036,27.846616)"><g
         id="g156"
         clip-path="url(#clipPath160)"><g
           id="g162"
           transform="translate(91.36488,-122)"><text
             transform="matrix(1,0,0,-1,0,377)"
             style="font-variant:normal;font-weight:normal;font-size:18px;font-family:Arial;-inkscape-font-specification:ArialMT;writing-mode:lr-tb;fill:#000000;fill-opacity:1;fill-rule:nonzero;stroke:none"
             id="text166"><tspan
               x="0 12.9996 24.991199 34.984798"
               y="0"
               sodipodi:role="line"
               id="tspan164">NB1.</tspan></text>
</g></g></g><g
       id="g168"
       transform="matrix(0.85227259,0,0,0.85227259,39.000036,27.846616)"><g
         id="g170"
         clip-path="url(#clipPath174)"><g
           id="g176"
           transform="translate(131.3649,-122)"><text
             transform="matrix(1,0,0,-1,0,377)"
             style="font-variant:normal;font-weight:normal;font-size:18px;font-family:Arial;-inkscape-font-specification:ArialMT;writing-mode:lr-tb;fill:#000000;fill-opacity:1;fill-rule:nonzero;stroke:none"
             id="text180"><tspan
               x="0 12.0006 21.000601 26.000999 36.001801 46.002602 56.003399 68.003998 78.004799 87.004799 91.004402 100.0044"
               y="0"
               sodipodi:role="line"
               id="tspan178">PythonBasics</tspan></text>
</g></g></g><g
       id="g182"
       transform="matrix(0.85227259,0,0,0.85227259,39.000036,27.846616)"><g
         id="g184"
         clip-path="url(#clipPath188)"><g
           id="g190"
           transform="translate(91.36488,-152)"><text
             transform="matrix(1,0,0,-1,0,377)"
             style="font-variant:normal;font-weight:normal;font-size:18px;font-family:Arial;-inkscape-font-specification:ArialMT;writing-mode:lr-tb;fill:#000000;fill-opacity:1;fill-rule:nonzero;stroke:none"
             id="text194"><tspan
               x="0 12.9996 24.991199 34.984798 39.992401 50.993999 60.987598 70.981201 80.9748 86.972397 94.643997 99.651604 113.6592 123.6528 133.64639 143.64 149.6376 159.6312"
               y="0"
               sodipodi:role="line"
               id="tspan192">NB2.Theory.General</tspan></text>
</g></g></g><g
       id="g196"
       transform="matrix(0.85227259,0,0,0.85227259,39.000036,27.846616)"><g
         id="g198"
         clip-path="url(#clipPath202)"><g
           id="g204"
           transform="translate(91.36488,-181)"><text
             transform="matrix(1,0,0,-1,0,377)"
             style="font-variant:normal;font-weight:normal;font-size:18px;font-family:Arial;-inkscape-font-specification:ArialMT;writing-mode:lr-tb;fill:#000000;fill-opacity:1;fill-rule:nonzero;stroke:none"
             id="text208"><tspan
               x="0 12.9996 24.991199 34.984798 39.992401 50.993999 60.987598 70.981201 80.9748 86.972397 94.643997 99.651604 111.6432 124.6428 129.65041 141.642"
               y="0"
               sodipodi:role="line"
               id="tspan206">NB3.Theory.PRISM</tspan></text>
</g></g></g><g
       id="g210"
       transform="matrix(0.85227259,0,0,0.85227259,39.000036,27.846616)"><g
         id="g212"
         clip-path="url(#clipPath216)"><g
           id="g218"
           transform="translate(91.36488,-210)"><text
             transform="matrix(1,0,0,-1,0,377)"
             style="font-variant:normal;font-weight:normal;font-size:18px;font-family:Arial;-inkscape-font-specification:ArialMT;writing-mode:lr-tb;fill:#000000;fill-opacity:1;fill-rule:nonzero;stroke:none"
             id="text222"><tspan
               x="0 12.9996 25.0002 35.000999 40.0014 50.002201 59.002201 71.0028 84.002403 89.0028 101.0034 116.0028 121.0032 135.0036 144.0036 154.00439 160.0038 169.0038 173.0034 183.0042"
               y="0"
               sodipodi:role="line"
               id="tspan220">NB4.pyPRISM.Overview</tspan></text>
</g></g></g><g
       id="g224"
       transform="matrix(0.85227259,0,0,0.85227259,39.000036,27.846616)"><g
         id="g226"
         clip-path="url(#clipPath230)"><g
           id="g232"
           transform="translate(91.36488,-239)"><text
             transform="matrix(1,0,0,-1,0,377)"
             style="font-variant:normal;font-weight:normal;font-size:18px;font-family:Arial;-inkscape-font-specification:ArialMT;writing-mode:lr-tb;fill:#000000;fill-opacity:1;fill-rule:nonzero;stroke:none"
             id="text236"><tspan
               x="0 12.9996 25.0002 35.000999 40.0014 53.000999 63.001801 72.001801 82.002602 94.003197 99.003601 109.0044 119.0052 123.0048 133.0056 142.0056 147.006 159.00661 169.0074 173.007 182.007 197.00639 207.0072 213.00661 228.006 238.00681 242.00639 247.00681"
               y="0"
               sodipodi:role="line"
               id="tspan234">NB5.CaseStudies.PolymerMelts</tspan></text>
</g></g></g><g
       id="g238"
       transform="matrix(0.85227259,0,0,0.85227259,39.000036,27.846616)"><g
         id="g240"
         clip-path="url(#clipPath244)"><g
           id="g246"
           transform="translate(91.36488,-268)"><text
             transform="matrix(1,0,0,-1,0,377)"
             style="font-variant:normal;font-weight:normal;font-size:18px;font-family:Arial;-inkscape-font-specification:ArialMT;writing-mode:lr-tb;fill:#000000;fill-opacity:1;fill-rule:nonzero;stroke:none"
             id="text250"><tspan
               x="0 12.9996 25.0002 35.000999 40.0014 53.000999 63.001801 72.001801 82.002602 94.003197 99.003601 109.0044 119.0052 123.0048 133.0056 142.0056 147.006 160.0056 170.00639 180.0072 190.008 199.008 209.0088 224.00819 234.009 244.0098 253.0098 257.0094 262.0098 272.01059"
               y="0"
               sodipodi:role="line"
               id="tspan248">NB6.CaseStudies.Nanocomposites</tspan></text>
</g></g></g><g
       id="g252"
       transform="matrix(0.85227259,0,0,0.85227259,39.000036,27.846616)"><g
         id="g254"
         clip-path="url(#clipPath258)"><g
           id="g260"
           transform="translate(91.36488,-298)"><text
             transform="matrix(1,0,0,-1,0,377)"
             style="font-variant:normal;font-weight:normal;font-size:18px;font-family:Arial;-inkscape-font-specification:ArialMT;writing-mode:lr-tb;fill:#000000;fill-opacity:1;fill-rule:nonzero;stroke:none"
             id="text264"><tspan
               x="0 12.9996 25.0002 35.000999 40.0014 53.000999 63.001801 72.001801 82.002602 94.003197 99.003601 109.0044 119.0052 123.0048 133.0056 142.0056 147.006 160.0056 170.00639 180.0072 190.008 194.0076 203.0076 218.007 228.0078 234.0072"
               y="0"
               sodipodi:role="line"
               id="tspan262">NB7.CaseStudies.Copolymers</tspan></text>
</g></g></g><g
       id="g266"
       transform="matrix(0.85227259,0,0,0.85227259,39.000036,27.846616)"><g
         id="g268"
         clip-path="url(#clipPath272)"><g
           id="g274"
           transform="translate(91.36488,-327)"><text
             transform="matrix(1,0,0,-1,0,377)"
             style="font-variant:normal;font-weight:normal;font-size:18px;font-family:Arial;-inkscape-font-specification:ArialMT;writing-mode:lr-tb;fill:#000000;fill-opacity:1;fill-rule:nonzero;stroke:none"
             id="text278"><tspan
               x="0 12.9996 25.0002 35.000999 40.0014 50.002201 59.002201 71.0028 84.002403 89.0028 101.0034 116.0028 121.0032 126.0036 136.00439 141.00481 151.0056 157.005 167.0058 177.00661 181.0062"
               y="0"
               sodipodi:role="line"
               id="tspan276">NB8.pyPRISM.Internals</tspan></text>
</g></g></g><g
       id="g280"
       transform="matrix(0.85227259,0,0,0.85227259,39.000036,27.846616)"><g
         id="g282"
         clip-path="url(#clipPath286)"><g
           id="g288"
           transform="translate(91.36488,-356)"><text
             transform="matrix(1,0,0,-1,0,377)"
             style="font-variant:normal;font-weight:normal;font-size:18px;font-family:Arial;-inkscape-font-specification:ArialMT;writing-mode:lr-tb;fill:#000000;fill-opacity:1;fill-rule:nonzero;stroke:none"
             id="text292"><tspan
               x="0 12.9996 25.0002 35.000999 40.0014 50.002201 59.002201 71.0028 84.002403 89.0028 101.0034 116.0028 121.0032 133.0038 143.00459 152.00459 162.0054 172.0062 181.0062 191.007"
               y="0"
               sodipodi:role="line"
               id="tspan290">NB9.pyPRISM.Advanced</tspan></text>
</g></g></g><g
       id="g294"><g
         id="g296"
         clip-path="url(#clipPath300)"><path
           d="m 53.488669,89.210244 12.784089,0 0,197.727236 -12.784089,0 z"
           style="fill:#ff0000;fill-opacity:0.25100002;fill-rule:nonzero;stroke:none"
           id="path302"
           inkscape:connector-curvature="0" /><path
           d="m 100.36366,40.204363 11.93182,0 0,48.984161 -11.93182,0 z"
           style="fill:#ff8829;fill-opacity:0.24709999;fill-rule:nonzero;stroke:none;stroke-width:0.99546176"
           id="path304"
           inkscape:connector-curvature="0" /><path
           d="m 100.36366,163.69866 11.93204,0 0,24.90788 -11.93204,0 z"
           style="fill:#ff8829;fill-opacity:0.24709999;fill-rule:nonzero;stroke:none;stroke-width:1.00388527"
           id="path306"
           inkscape:connector-curvature="0" /><path
           d="m 100.36366,263.92612 11.93182,0 0,23.01136 -11.93182,0 z"
           style="fill:#ff8829;fill-opacity:0.24709999;fill-rule:nonzero;stroke:none"
           id="path308"
           inkscape:connector-curvature="0" /><path
           d="m 85.022758,89.210244 11.931811,0 0,99.332366 -11.931811,0 z"
           style="fill:#007d00;fill-opacity:0.25100002;fill-rule:nonzero;stroke:none;stroke-width:0.99807513"
           id="path310"
           inkscape:connector-curvature="0" /><path
           d="m 85.022758,263.92612 12.784086,0 0,23.01136 -12.784086,0 z"
           style="fill:#007d00;fill-opacity:0.25100002;fill-rule:nonzero;stroke:none"
           id="path312"
           inkscape:connector-curvature="0" /><path
           d="m 69.681847,89.210244 11.931824,0 0,124.431796 -11.931824,0 z"
           style="fill:#0000ff;fill-opacity:0.25100002;fill-rule:nonzero;stroke:none"
           id="path314"
           inkscape:connector-curvature="0" /><path
           d="m 69.681847,263.92612 12.784086,0 0,23.01136 -12.784086,0 z"
           style="fill:#0000ff;fill-opacity:0.25100002;fill-rule:nonzero;stroke:none"
           id="path316"
           inkscape:connector-curvature="0" /><g
           id="g318"
           transform="matrix(0.85227259,0,0,0.85227259,76.894617,-1.9829259)"><text
             transform="matrix(1,0,0,-1,0,377)"
             style="font-variant:normal;font-weight:normal;font-size:18px;font-family:Arial;-inkscape-font-specification:ArialMT;writing-mode:lr-tb;fill:#000000;fill-opacity:1;fill-rule:nonzero;stroke:none"
             id="text322"><tspan
               x="0"
               y="0"
               id="tspan320">N</tspan></text>
</g><g
           id="g324"
           transform="matrix(0.85227259,0,0,0.85227259,87.974166,-1.9829259)"><text
             transform="matrix(1,0,0,-1,0,377)"
             style="font-variant:normal;font-weight:normal;font-size:18px;font-family:Arial;-inkscape-font-specification:ArialMT;writing-mode:lr-tb;fill:#000000;fill-opacity:1;fill-rule:nonzero;stroke:none"
             id="text328"><tspan
               x="0 10.0008"
               y="0"
               sodipodi:role="line"
               id="tspan326">o </tspan></text>
</g><g
           id="g330"
           transform="matrix(0.85227259,0,0,0.85227259,100.75825,-1.9829259)"><text
             transform="matrix(1,0,0,-1,0,377)"
             style="font-variant:normal;font-weight:normal;font-size:18px;font-family:Arial;-inkscape-font-specification:ArialMT;writing-mode:lr-tb;fill:#000000;fill-opacity:1;fill-rule:nonzero;stroke:none"
             id="text334"><tspan
               x="0"
               y="0"
               id="tspan332">P</tspan></text>
</g><g
           id="g336"
           transform="matrix(0.85227259,0,0,0.85227259,110.98553,-1.9829259)"><text
             transform="matrix(1,0,0,-1,0,377)"
             style="font-variant:normal;font-weight:normal;font-size:18px;font-family:Arial;-inkscape-font-specification:ArialMT;writing-mode:lr-tb;fill:#000000;fill-opacity:1;fill-rule:nonzero;stroke:none"
             id="text340"><tspan
               x="0 5.9994001 16.0002 26.000999 32.000401 42.001202 57.000599 72 75.999603 86.000397 96.001198 101.0016 113.0022 123.003 132.00301 141.00301 151.0038 157.0032 167.004 177.00481 187.0056"
               y="0"
               sodipodi:role="line"
               id="tspan338">rogramming Background</tspan></text>
</g><g
           id="g342"
           transform="matrix(0.85227259,0,0,0.85227259,76.894617,-19.88065)"><text
             transform="matrix(1,0,0,-1,0,377)"
             style="font-variant:normal;font-weight:normal;font-size:18px;font-family:Arial;-inkscape-font-specification:ArialMT;writing-mode:lr-tb;fill:#000000;fill-opacity:1;fill-rule:nonzero;stroke:none"
             id="text346"><tspan
               x="0"
               y="0"
               id="tspan344">S</tspan></text>
</g><g
           id="g348"
           transform="matrix(0.85227259,0,0,0.85227259,87.121891,-19.88065)"><text
             transform="matrix(1,0,0,-1,0,377)"
             style="font-variant:normal;font-weight:normal;font-size:18px;font-family:Arial;-inkscape-font-specification:ArialMT;writing-mode:lr-tb;fill:#000000;fill-opacity:1;fill-rule:nonzero;stroke:none"
             id="text352"><tspan
               x="0 3.9995999 18.999001 28.9998 32.999401 43.000198 48.000599 52.000198 62.000999 72.001801 77.002197 89.0028 99.003601 108.0036 117.0036 127.0044 133.0038 143.00459 153.0054 163.0062"
               y="0"
               sodipodi:role="line"
               id="tspan350">imulation Background</tspan></text>
</g><path
           d="m 58.602305,300.57384 11.931817,0 0,11.93182 -11.931817,0 z"
           style="fill:#0000ff;fill-opacity:0.25100002;fill-rule:nonzero;stroke:none"
           id="path354"
           inkscape:connector-curvature="0" /><path
           d="m 58.602305,318.47157 11.931817,0 0,11.93182 -11.931817,0 z"
           style="fill:#ff0000;fill-opacity:0.25100002;fill-rule:nonzero;stroke:none"
           id="path356"
           inkscape:connector-curvature="0" /><g
           id="g358"
           transform="matrix(0.85227259,0,0,0.85227259,317.72531,-1.1306534)"><text
             transform="matrix(1,0,0,-1,0,377)"
             style="font-variant:normal;font-weight:normal;font-size:18px;font-family:Arial;-inkscape-font-specification:ArialMT;writing-mode:lr-tb;fill:#000000;fill-opacity:1;fill-rule:nonzero;stroke:none"
             id="text362"><tspan
               x="0 12.0006 25.0002 30.000601 42.001202 57.000599 62.000999 74.001602 84.002403 93.002403 102.0024 112.0032 118.0026 128.0034 138.0042 148.005"
               y="0"
               sodipodi:role="line"
               id="tspan360">PRISM Background</tspan></text>
</g><g
           id="g364"
           transform="matrix(0.85227259,0,0,0.85227259,317.72531,-19.028378)"><text
             transform="matrix(1,0,0,-1,0,377)"
             style="font-variant:normal;font-weight:normal;font-size:18px;font-family:Arial;-inkscape-font-specification:ArialMT;writing-mode:lr-tb;fill:#000000;fill-opacity:1;fill-rule:nonzero;stroke:none"
             id="text368"><tspan
               x="0 12.0006 22.0014 31.0014 41.002201 51.002998 60.002998 70.003799 80.004601"
               y="0"
               sodipodi:role="line"
               id="tspan366">Advanced </tspan></text>
</g><g
           id="g370"
           transform="matrix(0.85227259,0,0,0.85227259,390.16847,-19.028378)"><text
             transform="matrix(1,0,0,-1,0,377)"
             style="font-variant:normal;font-weight:normal;font-size:18px;font-family:Arial;-inkscape-font-specification:ArialMT;writing-mode:lr-tb;fill:#000000;fill-opacity:1;fill-rule:nonzero;stroke:none"
             id="text374"><tspan
               x="0 10.0008 19.000799 31.0014 44.000999 49.0014 61.001999"
               y="0"
               sodipodi:role="line"
               id="tspan372">pyPRISM</tspan></text>
</g><path
           d="m 298.94317,319.32384 12.7841,0 0,12.78409 -12.7841,0 z"
           style="fill:#007d00;fill-opacity:0.25100002;fill-rule:nonzero;stroke:none"
           id="path376"
           inkscape:connector-curvature="0" /><path
           d="m 298.94317,301.42612 12.7841,0 0,11.93181 -12.7841,0 z"
           style="fill:#ff8829;fill-opacity:0.25100002;fill-rule:nonzero;stroke:none"
           id="path378"
           inkscape:connector-curvature="0" /></g></g></g></svg>